<svg viewBox="0 0 1200 100" fill="none" xmlns="http://www.w3.org/2000/svg">
<path fill-rule="evenodd" clip-rule="evenodd" d="M55.8621 39.4218C55.8621 31.4081 55.8621 26.9525 52.8991 24.043C49.9369 21.1328 45.4013 21.1328 37.2414 21.1328H18.6207C10.4616 21.1328 5.92518 21.1328 2.963 24.043C0 26.9525 0 31.4081 0 39.4218V57.7109C0 65.7246 0 70.1803 2.963 73.0905C5.92518 75.9999 10.4616 75.9999 18.6207 75.9999H37.2414C45.4013 75.9999 49.9369 75.9999 52.8991 73.0905C55.8621 70.1803 55.8621 65.7246 55.8621 57.7109V39.4218Z" fill="#FF0000"/>
<path fill-rule="evenodd" clip-rule="evenodd" d="M278.608 60.1641C278.608 69.2014 270.598 77.0699 254.277 77.0699C233.465 77.0699 229.007 62.8536 229.007 58.8579H243.791C243.791 61.7778 246.925 65.3929 254.277 65.3929C261.629 65.3929 264.217 62.8238 264.217 60.1641C264.217 57.5044 262.989 55.4066 256.854 54.4392L248.014 53.1113C236.514 51.2825 229.711 46.4086 229.711 37.2645C229.711 28.1204 237.691 20.0512 253.026 20.0512C270.079 20.0512 277.512 31.1791 277.512 38.2624H262.73C262.73 34.6369 259.326 31.7282 253.026 31.7282C246.725 31.7282 244.103 33.9288 244.103 37.2645C244.103 39.8464 246.156 41.2007 251.305 41.9538L260.614 43.3531C272.115 45.0735 278.608 50.3745 278.608 60.1641ZM330.529 21.127H353.36V34.6368H330.529V51.4085C330.529 59.3942 334.016 62.4859 341.794 62.4859H353.36V75.9941H338.996C323.245 75.9941 315.728 67.9506 315.728 53.1282V0H330.529V21.127ZM129.198 63.5608C121.134 63.5608 115.351 57.2523 115.351 48.5609C115.351 39.8696 121.134 33.5611 129.198 33.5611C137.319 33.5611 143.212 39.8696 143.212 48.5609C143.212 57.2523 137.319 63.5608 129.198 63.5608ZM132.419 20.0512C126.101 20.0512 120.334 22.3264 116.63 26.4047L116.628 26.408H115.351V21.127H100.552V97.1211H115.351V70.7172H116.63C120.058 74.3901 125.619 77.0707 132.419 77.0707C147.633 77.0707 158.013 65.0501 158.013 48.561C158.013 32.0718 147.633 20.0512 132.419 20.0512ZM471.339 32.279C477.743 32.279 482.788 36.3139 484.798 42.4475H457.975C459.97 36.3139 464.98 32.279 471.339 32.279ZM471.339 20.0512C455.351 20.0512 442.397 32.0718 442.397 48.561C442.397 64.9513 454.92 77.0699 471.808 77.0699C484.34 77.0699 495.593 70.0573 499.364 59.1542H483.551C481.172 62.7821 476.578 64.8421 471.808 64.8421C464.314 64.8421 458.985 59.9867 457.477 52.8312H500.087L500.058 52.7878C500.249 51.4118 500.381 50.0109 500.381 48.561C500.381 32.0718 487.429 20.0512 471.339 20.0512ZM362.835 75.9941H377.634V21.127H362.835V75.9941ZM362.835 13.5098H377.634V0H362.835V13.5098ZM287.873 75.9941H302.672V21.127H287.873V75.9941ZM287.873 13.5098H302.672V0H287.873V13.5098ZM193.65 63.5592C185.455 63.5592 179.507 57.2523 179.507 48.5609C179.507 39.8696 185.455 33.5611 193.65 33.5611C201.903 33.5611 207.892 39.8696 207.892 48.5609C207.892 57.392 202.037 63.5592 193.65 63.5592ZM193.65 20.0512C177.661 20.0512 164.707 32.071 164.707 48.561C164.707 64.9513 177.459 77.0699 193.65 77.0699C209.942 77.0699 222.692 65.0501 222.692 48.561C222.692 32.071 209.739 20.0512 193.65 20.0512ZM425.484 21.127H440.923L424.073 75.9941H401.644L384.793 21.127H400.232L411.685 62.4859H414.031L425.484 21.127ZM1200 60.1641C1200 69.2014 1191.99 77.0699 1175.67 77.0699C1154.86 77.0699 1150.4 62.8536 1150.4 58.8579H1165.18C1165.18 61.7778 1168.32 65.3929 1175.67 65.3929C1183.02 65.3929 1185.61 62.8238 1185.61 60.1641C1185.61 57.5044 1184.38 55.4066 1178.25 54.4392L1169.41 53.1113C1157.91 51.2825 1151.1 46.4086 1151.1 37.2645C1151.1 28.1204 1159.08 20.0512 1174.42 20.0512C1191.47 20.0512 1198.9 31.1791 1198.9 38.2624H1184.12C1184.12 34.6369 1180.72 31.7282 1174.42 31.7282C1168.12 31.7282 1165.5 33.9288 1165.5 37.2645C1165.5 39.8464 1167.55 41.2007 1172.7 41.9538L1182.01 43.3531C1193.51 45.0735 1200 50.3745 1200 60.1641ZM1006.11 48.0223C1006.11 39.4955 1012 33.3058 1020.12 33.3058C1028.18 33.3058 1033.97 39.4931 1033.97 48.0182V48.0271C1033.97 56.5522 1028.18 62.7395 1020.12 62.7395C1012 62.7395 1006.11 56.5498 1006.11 48.0223ZM1033.97 26.408H1032.8C1032.76 26.3638 1032.7 26.3004 1032.69 26.2851C1028.99 22.2831 1023.22 20.0512 1016.9 20.0512C1001.69 20.0512 991.309 31.8447 991.309 48.0223C991.309 64.2007 1001.69 75.9941 1016.9 75.9941C1023.7 75.9941 1029.26 73.3641 1032.69 69.7602H1033.97V75.4145C1033.97 83.4001 1030.48 86.4918 1022.7 86.4918H999.848V100H1025.5C1041.25 100 1048.77 91.9574 1048.77 77.1349V21.127H1033.97V26.408ZM828.578 42.8168V75.9941H813.779V45.0213C813.779 38.2062 808.861 33.5611 801.876 33.5611C794.893 33.5611 789.974 38.2062 789.974 45.0213V75.9941H775.174V21.127H789.974V26.408H791.087C794.845 22.259 800.439 20.0512 806.835 20.0512C819.634 20.0512 828.578 29.3784 828.578 42.8168ZM902.943 75.9941H917.743V0H902.943V75.9941ZM1114.62 32.279C1121.02 32.279 1126.07 36.3139 1128.08 42.4475H1101.26C1103.25 36.3139 1108.26 32.279 1114.62 32.279ZM1114.62 20.0512C1098.63 20.0512 1085.68 32.0718 1085.68 48.561C1085.68 64.9513 1098.2 77.0699 1115.09 77.0699C1127.62 77.0699 1138.87 70.0573 1142.64 59.1542H1126.83C1124.45 62.7821 1119.86 64.8421 1115.09 64.8421C1107.59 64.8421 1102.27 59.9867 1100.76 52.8312H1143.37L1143.34 52.7878C1143.53 51.4118 1143.66 50.0109 1143.66 48.561C1143.66 32.0718 1130.71 20.0512 1114.62 20.0512ZM1061.82 75.9941H1076.62V21.127H1061.82V75.9941ZM1061.82 13.5098H1076.62V0H1061.82V13.5098ZM955.108 63.5592C946.912 63.5592 940.965 57.2523 940.965 48.5609C940.965 39.8696 946.912 33.5611 955.108 33.5611C963.36 33.5611 969.35 39.8696 969.35 48.5609C969.35 57.392 963.494 63.5592 955.108 63.5592ZM955.108 20.0512C939.118 20.0512 926.165 32.071 926.165 48.561C926.165 64.9513 938.916 77.0699 955.108 77.0699C971.401 77.0699 984.15 65.0501 984.15 48.561C984.15 32.071 971.197 20.0512 955.108 20.0512ZM865.48 63.5592C857.285 63.5592 851.337 57.2523 851.337 48.5609C851.337 39.8696 857.285 33.5611 865.48 33.5611C873.732 33.5611 879.722 39.8696 879.722 48.5609C879.722 57.392 873.866 63.5592 865.48 63.5592ZM865.479 20.0512C849.49 20.0512 836.537 32.071 836.537 48.561C836.537 64.9513 849.288 77.0699 865.479 77.0699C881.773 77.0699 894.522 65.0501 894.522 48.561C894.522 32.071 881.569 20.0512 865.479 20.0512ZM551.078 21.127H573.909V34.6368H551.078V51.4085C551.078 59.3942 554.566 62.4859 562.343 62.4859H573.909V75.9941H559.545C543.796 75.9941 536.277 67.9506 536.277 53.1282V0H551.078V21.127ZM686.078 54.562H701.344C699.391 67.7138 687.811 77.0699 673.655 77.0699C657.463 77.0699 644.947 64.9513 644.947 48.561C644.947 32.0718 657.665 20.0512 673.655 20.0512C687.634 20.0512 699.344 28.7008 701.335 42.0983H686.031C684.346 36.4946 679.758 33.5611 673.655 33.5611C665.459 33.5611 659.746 39.8696 659.746 48.561C659.746 57.2523 665.459 63.56 673.655 63.56C679.88 63.56 684.667 60.1007 686.078 54.562ZM763.171 42.8168V75.9941H748.372V45.0213C748.372 38.2062 743.453 33.5611 736.469 33.5611C729.484 33.5611 724.566 38.2062 724.566 45.0213V75.9941H709.766V0H724.566V26.4079H725.68C729.439 22.259 735.031 20.0512 741.428 20.0512C754.226 20.0512 763.171 29.3784 763.171 42.8168ZM608.746 32.279C615.149 32.279 620.194 36.3139 622.203 42.4475H595.381C597.376 36.3139 602.386 32.279 608.746 32.279ZM608.746 20.0512C592.757 20.0512 579.804 32.0718 579.804 48.561C579.804 64.9513 592.326 77.0699 609.215 77.0699C621.747 77.0699 632.999 70.0573 636.77 59.1542H620.957C618.578 62.7821 613.985 64.8421 609.215 64.8421C601.721 64.8421 596.391 59.9867 594.884 52.8312H637.493L637.463 52.7878C637.655 51.4118 637.788 50.0109 637.788 48.561C637.788 32.0718 624.835 20.0512 608.746 20.0512Z" fill="white"/>
</svg>
