<svg width="572" height="837" viewBox="0 0 572 837" fill="none" xmlns="http://www.w3.org/2000/svg">
<path d="M1.27734 325.542V174.477C1.27734 173.924 1.72506 173.477 2.27734 173.477H64.0548C64.6071 173.477 65.0548 173.924 65.0548 174.477V325.542C65.0548 326.095 64.6071 326.542 64.0548 326.542H2.27734C1.72506 326.542 1.27734 326.095 1.27734 325.542Z" fill="url(#paint0_linear_661_25177)"/>
<path d="M33.9203 192.302L1.49896 173.09C0.834738 172.696 0.848194 171.73 1.52312 171.355L33.9449 153.343C34.2519 153.173 34.626 153.176 34.9302 153.351L66.1507 171.363C66.8069 171.742 66.8203 172.684 66.1751 173.081L34.9542 192.294C34.6379 192.488 34.2398 192.492 33.9203 192.302Z" fill="#2A2A2A"/>
<path d="M34.1752 191.872L1.75386 172.66C1.42175 172.463 1.42848 171.98 1.76594 171.792L34.1877 153.78C34.3412 153.695 34.5283 153.697 34.6804 153.784L65.9009 171.796C66.2289 171.985 66.2356 172.457 65.9131 172.655L34.6921 191.868C34.534 191.965 34.3349 191.967 34.1752 191.872Z" stroke="#808080" stroke-opacity="0.5"/>
<path d="M90.5586 312.784V120.9C90.5586 120.348 91.0063 119.9 91.5586 119.9H150.785C151.337 119.9 151.785 120.348 151.785 120.9V312.784C151.785 313.336 151.337 313.784 150.785 313.784H91.5586C91.0063 313.784 90.5586 313.336 90.5586 312.784Z" fill="url(#paint1_linear_661_25177)"/>
<path d="M121.928 141.277L89.5068 122.064C88.8426 121.671 88.856 120.705 89.5309 120.33L121.953 102.318C122.26 102.147 122.634 102.15 122.938 102.326L154.159 120.338C154.815 120.716 154.828 121.659 154.183 122.056L122.962 141.268C122.646 141.463 122.248 141.466 121.928 141.277Z" fill="#2A2A2A"/>
<path d="M122.183 140.847L89.7617 121.634C89.4296 121.438 89.4363 120.955 89.7738 120.767L122.196 102.755C122.349 102.67 122.536 102.671 122.688 102.759L153.909 120.771C154.237 120.96 154.243 121.431 153.921 121.63L122.7 140.843C122.542 140.94 122.343 140.942 122.183 140.847Z" stroke="#808080" stroke-opacity="0.4"/>
<path d="M179.855 238.804V72.4316C179.855 71.8794 180.303 71.4316 180.855 71.4316H242.633C243.185 71.4316 243.633 71.8794 243.633 72.4316V238.804C243.633 239.356 243.185 239.804 242.633 239.804H180.855C180.303 239.804 179.855 239.356 179.855 238.804Z" fill="url(#paint2_linear_661_25177)"/>
<path d="M211.225 92.8083L178.804 73.5957C178.139 73.2021 178.153 72.2362 178.828 71.8613L211.25 53.8492C211.557 53.6786 211.931 53.6816 212.235 53.8572L243.455 71.869C244.112 72.2475 244.125 73.1898 243.48 73.5868L212.259 92.7997C211.943 92.9944 211.544 92.9977 211.225 92.8083Z" fill="#2A2A2A"/>
<path d="M211.48 92.3782L179.059 73.1656C178.726 72.9688 178.733 72.4858 179.071 72.2983L211.492 54.2863C211.646 54.201 211.833 54.2025 211.985 54.2902L243.206 72.3021C243.534 72.4913 243.54 72.9625 243.218 73.161L211.997 92.3739C211.839 92.4712 211.64 92.4729 211.48 92.3782Z" stroke="#808080" stroke-opacity="0.3"/>
<path d="M266.59 279.62V18.8574C266.59 18.3051 267.038 17.8574 267.59 17.8574H329.367C329.92 17.8574 330.367 18.3051 330.367 18.8574V279.62C330.367 280.173 329.92 280.62 329.367 280.62H267.59C267.038 280.62 266.59 280.173 266.59 279.62Z" fill="url(#paint3_linear_661_25177)"/>
<path d="M297.959 39.2341L265.538 20.0215C264.874 19.6279 264.887 18.662 265.562 18.2871L297.984 0.274966C298.291 0.104378 298.665 0.107403 298.969 0.282937L330.19 18.2948C330.846 18.6733 330.859 19.6156 330.214 20.0126L298.993 39.2255C298.677 39.4201 298.279 39.4235 297.959 39.2341Z" fill="#2A2A2A"/>
<path d="M298.214 38.804L265.793 19.5914C265.461 19.3946 265.468 18.9116 265.805 18.7241L298.227 0.712045C298.38 0.62675 298.567 0.628263 298.719 0.71603L329.94 18.7278C330.268 18.9171 330.275 19.3883 329.952 19.5868L298.731 38.7997C298.573 38.897 298.374 38.8986 298.214 38.804Z" stroke="#808080" stroke-opacity="0.2"/>
<path d="M1.27734 402.075V258.662C1.27734 258.11 1.72506 257.662 2.27734 257.662H64.0548C64.6071 257.662 65.0548 258.11 65.0548 258.662V402.075C65.0548 402.627 64.6071 403.075 64.0548 403.075H2.27734C1.72506 403.075 1.27734 402.627 1.27734 402.075Z" fill="url(#paint4_linear_661_25177)"/>
<path d="M33.9203 279.039L1.49896 259.826C0.834738 259.433 0.848194 258.467 1.52312 258.092L33.9449 240.08C34.2519 239.909 34.626 239.912 34.9302 240.088L66.1507 258.099C66.8069 258.478 66.8203 259.42 66.1751 259.817L34.9542 279.03C34.6379 279.225 34.2398 279.228 33.9203 279.039Z" fill="#2A2A2A"/>
<path d="M34.1752 278.609L1.75386 259.396C1.42175 259.199 1.42848 258.716 1.76594 258.529L34.1877 240.517C34.3412 240.431 34.5283 240.433 34.6804 240.521L65.9009 258.533C66.2289 258.722 66.2356 259.193 65.9131 259.391L34.6921 278.604C34.534 278.702 34.3349 278.703 34.1752 278.609Z" stroke="#808080" stroke-opacity="0.9"/>
<path d="M90.5586 835.762V208.916C90.5586 208.364 91.0063 207.916 91.5586 207.916H152.06C152.613 207.916 153.06 208.364 153.06 208.916V835.762C153.06 836.314 152.613 836.762 152.06 836.762H91.5586C91.0063 836.762 90.5586 836.314 90.5586 835.762Z" fill="url(#paint5_linear_661_25177)"/>
<path d="M121.928 228.017L89.5068 208.805C88.8426 208.411 88.856 207.445 89.5309 207.07L121.953 189.058C122.26 188.888 122.634 188.891 122.938 189.066L154.159 207.078C154.815 207.457 154.828 208.399 154.183 208.796L122.962 228.009C122.646 228.203 122.248 228.207 121.928 228.017Z" fill="#2A2A2A"/>
<path d="M122.183 227.587L89.7617 208.375C89.4296 208.178 89.4363 207.695 89.7738 207.507L122.196 189.495C122.349 189.41 122.536 189.411 122.688 189.499L153.909 207.511C154.237 207.7 154.243 208.171 153.921 208.37L122.7 227.583C122.542 227.68 122.343 227.682 122.183 227.587Z" stroke="#808080" stroke-opacity="0.6"/>
<path d="M179.855 343.398V159.168C179.855 158.616 180.303 158.168 180.855 158.168H242.633C243.185 158.168 243.633 158.616 243.633 159.168V343.398C243.633 343.95 243.185 344.398 242.633 344.398H180.855C180.303 344.398 179.855 343.95 179.855 343.398Z" fill="url(#paint6_linear_661_25177)"/>
<path d="M211.225 179.545L178.804 160.332C178.139 159.938 178.153 158.973 178.828 158.598L211.25 140.586C211.557 140.415 211.931 140.418 212.235 140.593L243.455 158.605C244.112 158.984 244.125 159.926 243.48 160.323L212.259 179.536C211.943 179.731 211.544 179.734 211.225 179.545Z" fill="#2A2A2A"/>
<path d="M211.48 179.115L179.059 159.902C178.726 159.705 178.733 159.222 179.071 159.035L211.492 141.023C211.646 140.937 211.833 140.939 211.985 141.027L243.206 159.038C243.534 159.228 243.54 159.699 243.218 159.897L211.997 179.11C211.839 179.208 211.64 179.209 211.48 179.115Z" stroke="#808080" stroke-opacity="0.5"/>
<path d="M363.527 249.008V72.4316C363.527 71.8794 363.975 71.4316 364.527 71.4316H416.1C416.653 71.4316 417.1 71.8794 417.1 72.4316V249.008C417.1 249.561 416.653 250.008 416.1 250.008H364.527C363.975 250.008 363.527 249.561 363.527 249.008Z" fill="url(#paint7_linear_661_25177)"/>
<path d="M390.558 87.8267L362.476 71.1852C361.811 70.7916 361.825 69.8257 362.5 69.4508L390.583 53.8492C390.89 53.6786 391.264 53.6816 391.568 53.8572L418.61 69.4585C419.266 69.837 419.28 70.7793 418.635 71.1763L391.592 87.818C391.276 88.0127 390.877 88.016 390.558 87.8267Z" fill="#2A2A2A"/>
<path d="M390.813 87.3965L362.73 70.7551C362.398 70.5583 362.405 70.0753 362.743 69.8879L390.825 54.2863L390.583 53.8492L390.825 54.2863C390.979 54.201 391.166 54.2025 391.318 54.2902L418.36 69.8916C418.688 70.0809 418.695 70.552 418.373 70.7505L391.33 87.3922C391.172 87.4895 390.973 87.4912 390.813 87.3965Z" stroke="#808080" stroke-opacity="0.3"/>
<path d="M457.926 277.068V123.451C457.926 122.899 458.373 122.451 458.926 122.451H505.397C505.949 122.451 506.397 122.899 506.397 123.451V277.068C506.397 277.62 505.949 278.068 505.397 278.068H458.926C458.373 278.068 457.926 277.62 457.926 277.068Z" fill="url(#paint8_linear_661_25177)"/>
<path d="M482.516 138.597L456.874 123.402C456.21 123.008 456.223 122.042 456.898 121.667L482.54 107.421C482.847 107.251 483.221 107.254 483.526 107.429L508.218 121.675C508.874 122.053 508.887 122.996 508.242 123.393L483.55 138.588C483.233 138.783 482.835 138.786 482.516 138.597Z" fill="#2A2A2A"/>
<path d="M482.771 138.167L457.129 122.971C456.797 122.775 456.803 122.292 457.141 122.104L482.783 107.859L482.54 107.421L482.783 107.859C482.937 107.773 483.124 107.775 483.276 107.863L507.968 122.108C508.296 122.297 508.303 122.768 507.98 122.967L483.288 138.162C483.129 138.26 482.93 138.261 482.771 138.167Z" stroke="#808080" stroke-opacity="0.4"/>
<path d="M457.926 402.071V210.187C457.926 209.635 458.373 209.188 458.926 209.188H505.397C505.949 209.188 506.397 209.635 506.397 210.187V402.071C506.397 402.623 505.949 403.071 505.397 403.071H458.926C458.373 403.071 457.926 402.623 457.926 402.071Z" fill="url(#paint9_linear_661_25177)"/>
<path d="M482.516 225.333L456.874 210.138C456.21 209.744 456.223 208.778 456.898 208.403L482.54 194.158C482.847 193.987 483.221 193.99 483.526 194.166L508.218 208.411C508.874 208.79 508.887 209.732 508.242 210.129L483.55 225.324C483.233 225.519 482.835 225.522 482.516 225.333Z" fill="#2A2A2A"/>
<path d="M482.771 224.903L457.129 209.708C456.797 209.511 456.803 209.028 457.141 208.841L482.783 194.595L482.54 194.158L482.783 194.595C482.937 194.51 483.124 194.511 483.276 194.599L507.968 208.844C508.296 209.034 508.303 209.505 507.98 209.703L483.288 224.899C483.129 224.996 482.93 224.998 482.771 224.903Z" stroke="#808080" stroke-opacity="0.6"/>
<path d="M554.863 343.402V177.029C554.863 176.477 555.311 176.029 555.863 176.029H594.681C595.233 176.029 595.681 176.477 595.681 177.029V343.402C595.681 343.954 595.233 344.402 594.681 344.402H555.863C555.311 344.402 554.863 343.954 554.863 343.402Z" fill="url(#paint10_linear_661_25177)"/>
<path d="M574.827 188.687L554.066 176.385C553.734 176.188 553.741 175.705 554.078 175.517L574.839 163.984L574.597 163.546L574.839 163.984C574.993 163.898 575.18 163.9 575.332 163.988L595.324 175.521C595.652 175.71 595.659 176.182 595.336 176.38L575.344 188.683C575.186 188.78 574.987 188.782 574.827 188.687Z" fill="#2A2A2A" stroke="#808080"/>
<path d="M554.863 629.119V444.889C554.863 444.336 555.311 443.889 555.863 443.889H594.681C595.233 443.889 595.681 444.336 595.681 444.889V629.119C595.681 629.671 595.233 630.119 594.681 630.119H555.863C555.311 630.119 554.863 629.671 554.863 629.119Z" fill="url(#paint11_linear_661_25177)"/>
<path d="M574.827 456.551L554.066 444.248C553.734 444.051 553.741 443.568 554.078 443.381L574.839 431.847L574.597 431.41L574.839 431.847C574.993 431.762 575.18 431.763 575.332 431.851L595.324 443.384C595.652 443.574 595.659 444.045 595.336 444.243L575.344 456.546C575.186 456.644 574.987 456.645 574.827 456.551Z" fill="#2A2A2A" stroke="#808080"/>
<path d="M457.926 593.407V401.523C457.926 400.971 458.373 400.523 458.926 400.523H505.397C505.949 400.523 506.397 400.971 506.397 401.523V593.407C506.397 593.959 505.949 594.407 505.397 594.407H458.926C458.373 594.407 457.926 593.959 457.926 593.407Z" fill="url(#paint12_linear_661_25177)"/>
<path d="M482.516 416.669L456.874 401.474C456.21 401.08 456.223 400.114 456.898 399.739L482.54 385.494C482.847 385.323 483.221 385.326 483.526 385.502L508.218 399.747C508.874 400.126 508.887 401.068 508.242 401.465L483.55 416.66C483.233 416.855 482.835 416.858 482.516 416.669Z" fill="#2A2A2A"/>
<path d="M482.771 416.239L457.129 401.044C456.797 400.847 456.803 400.364 457.141 400.176L482.783 385.931L482.54 385.494L482.783 385.931C482.937 385.846 483.124 385.847 483.276 385.935L507.968 400.18C508.296 400.369 508.303 400.841 507.98 401.039L483.288 416.235C483.129 416.332 482.93 416.334 482.771 416.239Z" stroke="#808080" stroke-opacity="0.8"/>
<path d="M457.926 705.653V485.707C457.926 485.155 458.373 484.707 458.926 484.707H505.397C505.949 484.707 506.397 485.155 506.397 485.707V705.653C506.397 706.205 505.949 706.653 505.397 706.653H458.926C458.373 706.653 457.926 706.205 457.926 705.653Z" fill="url(#paint13_linear_661_25177)"/>
<path d="M482.516 500.855L456.874 485.659C456.21 485.266 456.223 484.3 456.898 483.925L482.54 469.679C482.847 469.509 483.221 469.512 483.526 469.687L508.218 483.933C508.874 484.311 508.887 485.253 508.242 485.651L483.55 500.846C483.233 501.041 482.835 501.044 482.516 500.855Z" fill="#2A2A2A"/>
<path d="M482.771 500.424L457.129 485.229C456.797 485.032 456.803 484.55 457.141 484.362L482.783 470.116L482.54 469.679L482.783 470.116C482.937 470.031 483.124 470.033 483.276 470.12L507.968 484.366C508.296 484.555 508.303 485.026 507.98 485.225L483.288 500.42C483.129 500.517 482.93 500.519 482.771 500.424Z" stroke="#808080" stroke-opacity="0.6"/>
<path d="M363.527 376.562V159.168C363.527 158.616 363.975 158.168 364.527 158.168H416.1C416.653 158.168 417.1 158.616 417.1 159.168V376.562C417.1 377.115 416.653 377.562 416.1 377.562H364.527C363.975 377.562 363.527 377.115 363.527 376.562Z" fill="url(#paint14_linear_661_25177)"/>
<path d="M390.558 174.563L362.476 157.922C361.811 157.528 361.825 156.562 362.5 156.187L390.583 140.586C390.89 140.415 391.264 140.418 391.568 140.593L418.61 156.195C419.266 156.573 419.28 157.516 418.635 157.913L391.592 174.554C391.276 174.749 390.877 174.752 390.558 174.563Z" fill="#2A2A2A"/>
<path d="M390.813 174.133L362.73 157.491C362.398 157.295 362.405 156.812 362.743 156.624L390.825 141.023L390.583 140.586L390.825 141.023C390.979 140.937 391.166 140.939 391.318 141.027L418.36 156.628C418.688 156.817 418.695 157.288 418.373 157.487L391.33 174.129C391.172 174.226 390.973 174.228 390.813 174.133Z" stroke="#808080" stroke-opacity="0.5"/>
<path d="M363.527 616.368V452.547C363.527 451.995 363.975 451.547 364.527 451.547H416.1C416.653 451.547 417.1 451.995 417.1 452.547V616.368C417.1 616.921 416.653 617.368 416.1 617.368H364.527C363.975 617.368 363.527 616.921 363.527 616.368Z" fill="url(#paint15_linear_661_25177)"/>
<path d="M390.558 467.942L362.476 451.3C361.811 450.907 361.825 449.941 362.5 449.566L390.583 433.964C390.89 433.794 391.264 433.797 391.568 433.972L418.61 449.574C419.266 449.952 419.28 450.895 418.635 451.292L391.592 467.933C391.276 468.128 390.877 468.131 390.558 467.942Z" fill="#2A2A2A"/>
<path d="M390.813 467.512L362.73 450.87C362.398 450.674 362.405 450.191 362.743 450.003L390.825 434.401L390.583 433.964L390.825 434.401C390.979 434.316 391.166 434.318 391.318 434.405L418.36 450.007C418.688 450.196 418.695 450.667 418.373 450.866L391.33 467.507C391.172 467.605 390.973 467.606 390.813 467.512Z" stroke="#808080" stroke-opacity="0.7"/>
<path d="M363.527 743.922V539.283C363.527 538.731 363.975 538.283 364.527 538.283H416.1C416.653 538.283 417.1 538.731 417.1 539.283V743.922C417.1 744.474 416.653 744.922 416.1 744.922H364.527C363.975 744.922 363.527 744.474 363.527 743.922Z" fill="url(#paint16_linear_661_25177)"/>
<path d="M390.558 554.678L362.476 538.037C361.811 537.643 361.825 536.677 362.5 536.302L390.583 520.701C390.89 520.53 391.264 520.533 391.568 520.709L418.61 536.31C419.266 536.689 419.28 537.631 418.635 538.028L391.592 554.67C391.276 554.864 390.877 554.868 390.558 554.678Z" fill="#2A2A2A"/>
<path d="M390.813 554.248L362.73 537.607C362.398 537.41 362.405 536.927 362.743 536.739L390.825 521.138L390.583 520.701L390.825 521.138C390.979 521.053 391.166 521.054 391.318 521.142L418.36 536.743C418.688 536.932 418.695 537.404 418.373 537.602L391.33 554.244C391.172 554.341 390.973 554.343 390.813 554.248Z" stroke="#808080" stroke-opacity="0.4"/>
<path d="M266.59 325.541V105.596C266.59 105.043 267.038 104.596 267.59 104.596H329.367C329.92 104.596 330.367 105.043 330.367 105.596V325.541C330.367 326.093 329.92 326.541 329.367 326.541H267.59C267.038 326.541 266.59 326.093 266.59 325.541Z" fill="url(#paint17_linear_661_25177)"/>
<path d="M298.214 125.542L265.793 106.33C265.461 106.133 265.468 105.65 265.805 105.462L298.227 87.4503C298.38 87.365 298.567 87.3665 298.719 87.4543L329.94 105.466C330.268 105.655 330.275 106.127 329.952 106.325L298.731 125.538C298.573 125.635 298.374 125.637 298.214 125.542Z" fill="#2A2A2A" stroke="#FC3E24"/>
<path d="M1.27734 529.629V345.398C1.27734 344.846 1.72506 344.398 2.27734 344.398H64.0548C64.6071 344.398 65.0548 344.846 65.0548 345.398V529.629C65.0548 530.181 64.6071 530.629 64.0548 530.629H2.27734C1.72506 530.629 1.27734 530.181 1.27734 529.629Z" fill="url(#paint18_linear_661_25177)"/>
<path d="M34.1752 365.345L1.75386 346.132C1.42175 345.936 1.42848 345.453 1.76594 345.265L34.1877 327.253C34.3412 327.168 34.5283 327.169 34.6804 327.257L65.9009 345.269C66.2289 345.458 66.2356 345.929 65.9131 346.128L34.6921 365.341C34.534 365.438 34.3349 365.44 34.1752 365.345Z" fill="#2A2A2A" stroke="#808080"/>
<path d="M90.5586 562.794V396.422C90.5586 395.87 91.0063 395.422 91.5586 395.422H150.785C151.337 395.422 151.785 395.87 151.785 396.422V562.794C151.785 563.347 151.337 563.794 150.785 563.794H91.5586C91.0063 563.794 90.5586 563.347 90.5586 562.794Z" fill="url(#paint19_linear_661_25177)"/>
<path d="M121.928 416.799L89.5068 397.586C88.8426 397.192 88.856 396.226 89.5309 395.852L121.953 377.839C122.26 377.669 122.634 377.672 122.938 377.847L154.159 395.859C154.815 396.238 154.828 397.18 154.183 397.577L122.962 416.79C122.646 416.985 122.248 416.988 121.928 416.799Z" fill="#2A2A2A"/>
<path d="M122.183 416.368L89.7617 397.156C89.4296 396.959 89.4363 396.476 89.7738 396.289L122.196 378.276C122.349 378.191 122.536 378.193 122.688 378.28L153.909 396.292C154.237 396.482 154.243 396.953 153.921 397.151L122.7 416.364C122.542 416.461 122.343 416.463 122.183 416.368Z" stroke="#808080" stroke-opacity="0.8"/>
<path d="M179.855 629.12V449.992C179.855 449.44 180.303 448.992 180.855 448.992H242.633C243.185 448.992 243.633 449.44 243.633 449.992V629.12C243.633 629.672 243.185 630.12 242.633 630.12H180.855C180.303 630.12 179.855 629.672 179.855 629.12Z" fill="url(#paint20_linear_661_25177)"/>
<path d="M211.48 469.939L179.059 450.726C178.726 450.529 178.733 450.046 179.071 449.859L211.492 431.847C211.646 431.762 211.833 431.763 211.985 431.851L243.206 449.863C243.534 450.052 243.54 450.523 243.218 450.722L211.997 469.934C211.839 470.032 211.64 470.033 211.48 469.939Z" fill="#2A2A2A" stroke="#FC3E24"/>
<path d="M266.59 720.961V503.566C266.59 503.014 267.038 502.566 267.59 502.566H329.367C329.92 502.566 330.367 503.014 330.367 503.566V720.961C330.367 721.513 329.92 721.961 329.367 721.961H267.59C267.038 721.961 266.59 721.513 266.59 720.961Z" fill="url(#paint21_linear_661_25177)"/>
<path d="M297.959 523.945L265.538 504.732C264.874 504.339 264.887 503.373 265.562 502.998L297.984 484.986C298.291 484.815 298.665 484.818 298.969 484.994L330.19 503.006C330.846 503.384 330.859 504.327 330.214 504.724L298.993 523.936C298.677 524.131 298.279 524.134 297.959 523.945Z" fill="#2A2A2A"/>
<path d="M298.214 523.515L265.793 504.302C265.461 504.105 265.468 503.623 265.805 503.435L298.227 485.423C298.38 485.338 298.567 485.339 298.719 485.427L329.94 503.439C330.268 503.628 330.275 504.099 329.952 504.298L298.731 523.511C298.573 523.608 298.374 523.61 298.214 523.515Z" stroke="#808080" stroke-opacity="0.4"/>
<path d="M1.27734 639.327V432.137C1.27734 431.584 1.72506 431.137 2.27734 431.137H64.0548C64.6071 431.137 65.0548 431.584 65.0548 432.137V639.327C65.0548 639.879 64.6071 640.327 64.0548 640.327H2.27734C1.72506 640.327 1.27734 639.879 1.27734 639.327Z" fill="url(#paint22_linear_661_25177)"/>
<path d="M33.9203 452.513L1.49896 433.301C0.834738 432.907 0.848194 431.941 1.52312 431.566L33.9449 413.554C34.2519 413.384 34.626 413.387 34.9302 413.562L66.1507 431.574C66.8069 431.953 66.8203 432.895 66.1751 433.292L34.9542 452.505C34.6379 452.699 34.2398 452.703 33.9203 452.513Z" fill="#2A2A2A"/>
<path d="M34.1752 452.083L1.75386 432.871C1.42175 432.674 1.42848 432.191 1.76594 432.003L34.1877 413.991C34.3412 413.906 34.5283 413.908 34.6804 413.995L65.9009 432.007C66.2289 432.196 66.2356 432.668 65.9131 432.866L34.6921 452.079C34.534 452.176 34.3349 452.178 34.1752 452.083Z" stroke="#808080" stroke-opacity="0.7"/>
<path d="M90.5586 720.961V483.158C90.5586 482.606 91.0063 482.158 91.5586 482.158H150.785C151.337 482.158 151.785 482.606 151.785 483.158V720.961C151.785 721.514 151.337 721.961 150.785 721.961H91.5586C91.0063 721.961 90.5586 721.514 90.5586 720.961Z" fill="url(#paint23_linear_661_25177)"/>
<path d="M121.928 503.537L89.5068 484.324C88.8426 483.931 88.856 482.965 89.5309 482.59L121.953 464.578C122.26 464.407 122.634 464.41 122.938 464.586L154.159 482.597C154.815 482.976 154.828 483.918 154.183 484.315L122.962 503.528C122.646 503.723 122.248 503.726 121.928 503.537Z" fill="#2A2A2A"/>
<path d="M122.183 503.107L89.7617 483.894C89.4296 483.697 89.4363 483.214 89.7738 483.027L122.196 465.015C122.349 464.929 122.536 464.931 122.688 465.019L153.909 483.031C154.237 483.22 154.243 483.691 153.921 483.89L122.7 503.102C122.542 503.2 122.343 503.201 122.183 503.107Z" stroke="#808080" stroke-opacity="0.6"/>
<path d="M179.855 705.654V536.73C179.855 536.178 180.303 535.73 180.855 535.73H242.633C243.185 535.73 243.633 536.178 243.633 536.73V705.654C243.633 706.206 243.185 706.654 242.633 706.654H180.855C180.303 706.654 179.855 706.206 179.855 705.654Z" fill="url(#paint24_linear_661_25177)"/>
<path d="M211.225 557.107L178.804 537.895C178.139 537.501 178.153 536.535 178.828 536.16L211.25 518.148C211.557 517.977 211.931 517.98 212.235 518.156L243.455 536.168C244.112 536.546 244.125 537.489 243.48 537.886L212.259 557.099C211.943 557.293 211.544 557.297 211.225 557.107Z" fill="#2A2A2A"/>
<path d="M211.48 556.677L179.059 537.464C178.726 537.268 178.733 536.785 179.071 536.597L211.492 518.585C211.646 518.5 211.833 518.501 211.985 518.589L243.206 536.601C243.534 536.79 243.54 537.261 243.218 537.46L211.997 556.673C211.839 556.77 211.64 556.772 211.48 556.677Z" stroke="#808080" stroke-opacity="0.4"/>
<path d="M266.59 769.431V590.303C266.59 589.75 267.038 589.303 267.59 589.303H329.367C329.92 589.303 330.367 589.75 330.367 590.303V769.431C330.367 769.983 329.92 770.431 329.367 770.431H267.59C267.038 770.431 266.59 769.983 266.59 769.431Z" fill="url(#paint25_linear_661_25177)"/>
<path d="M297.959 610.681L265.538 591.469C264.874 591.075 264.887 590.109 265.562 589.734L297.984 571.722C298.291 571.552 298.665 571.555 298.969 571.73L330.19 589.742C330.846 590.121 330.859 591.063 330.214 591.46L298.993 610.673C298.677 610.867 298.279 610.871 297.959 610.681Z" fill="#2A2A2A"/>
<path d="M298.214 610.251L265.793 591.039C265.461 590.842 265.468 590.359 265.805 590.171L298.227 572.159C298.38 572.074 298.567 572.076 298.719 572.163L329.94 590.175C330.268 590.364 330.275 590.836 329.952 591.034L298.731 610.247C298.573 610.344 298.374 610.346 298.214 610.251Z" stroke="#808080" stroke-opacity="0.2"/>
<defs>
<linearGradient id="paint0_linear_661_25177" x1="33.1661" y1="173.477" x2="33.2031" y2="270.967" gradientUnits="userSpaceOnUse">
<stop stop-color="#2B2B2B"/>
<stop offset="1" stop-color="#2B2B2B" stop-opacity="0"/>
</linearGradient>
<linearGradient id="paint1_linear_661_25177" x1="121.172" y1="119.9" x2="121.234" y2="243.388" gradientUnits="userSpaceOnUse">
<stop stop-color="#2B2B2B"/>
<stop offset="1" stop-color="#2B2B2B" stop-opacity="0"/>
</linearGradient>
<linearGradient id="paint2_linear_661_25177" x1="211.744" y1="71.4316" x2="211.789" y2="178.671" gradientUnits="userSpaceOnUse">
<stop stop-color="#2B2B2B"/>
<stop offset="1" stop-color="#2B2B2B" stop-opacity="0"/>
</linearGradient>
<linearGradient id="paint3_linear_661_25177" x1="298.479" y1="17.8574" x2="298.588" y2="185.216" gradientUnits="userSpaceOnUse">
<stop stop-color="#2B2B2B"/>
<stop offset="1" stop-color="#2B2B2B" stop-opacity="0"/>
</linearGradient>
<linearGradient id="paint4_linear_661_25177" x1="33.1661" y1="257.662" x2="33.1995" y2="350.278" gradientUnits="userSpaceOnUse">
<stop stop-color="#2B2B2B"/>
<stop offset="1" stop-color="#2B2B2B" stop-opacity="0"/>
</linearGradient>
<linearGradient id="paint5_linear_661_25177" x1="121.81" y1="207.916" x2="122.447" y2="608.438" gradientUnits="userSpaceOnUse">
<stop stop-color="#2B2B2B"/>
<stop offset="1" stop-color="#2B2B2B" stop-opacity="0"/>
</linearGradient>
<linearGradient id="paint6_linear_661_25177" x1="211.744" y1="158.168" x2="211.799" y2="276.781" gradientUnits="userSpaceOnUse">
<stop stop-color="#2B2B2B"/>
<stop offset="1" stop-color="#2B2B2B" stop-opacity="0"/>
</linearGradient>
<linearGradient id="paint7_linear_661_25177" x1="390.314" y1="71.4316" x2="390.374" y2="185.17" gradientUnits="userSpaceOnUse">
<stop stop-color="#2B2B2B"/>
<stop offset="1" stop-color="#2B2B2B" stop-opacity="0"/>
</linearGradient>
<linearGradient id="paint8_linear_661_25177" x1="482.161" y1="122.451" x2="482.212" y2="221.566" gradientUnits="userSpaceOnUse">
<stop stop-color="#2B2B2B"/>
<stop offset="1" stop-color="#2B2B2B" stop-opacity="0"/>
</linearGradient>
<linearGradient id="paint9_linear_661_25177" x1="482.161" y1="209.187" x2="482.239" y2="332.675" gradientUnits="userSpaceOnUse">
<stop stop-color="#2B2B2B"/>
<stop offset="1" stop-color="#2B2B2B" stop-opacity="0"/>
</linearGradient>
<linearGradient id="paint10_linear_661_25177" x1="575.272" y1="176.029" x2="575.342" y2="283.269" gradientUnits="userSpaceOnUse">
<stop stop-color="#2B2B2B"/>
<stop offset="1" stop-color="#2B2B2B" stop-opacity="0"/>
</linearGradient>
<linearGradient id="paint11_linear_661_25177" x1="575.272" y1="443.889" x2="575.358" y2="562.502" gradientUnits="userSpaceOnUse">
<stop stop-color="#2B2B2B"/>
<stop offset="1" stop-color="#2B2B2B" stop-opacity="0"/>
</linearGradient>
<linearGradient id="paint12_linear_661_25177" x1="482.161" y1="400.523" x2="482.239" y2="524.011" gradientUnits="userSpaceOnUse">
<stop stop-color="#2B2B2B"/>
<stop offset="1" stop-color="#2B2B2B" stop-opacity="0"/>
</linearGradient>
<linearGradient id="paint13_linear_661_25177" x1="482.161" y1="484.707" x2="482.264" y2="626.068" gradientUnits="userSpaceOnUse">
<stop stop-color="#2B2B2B"/>
<stop offset="1" stop-color="#2B2B2B" stop-opacity="0"/>
</linearGradient>
<linearGradient id="paint14_linear_661_25177" x1="390.314" y1="158.168" x2="390.404" y2="297.904" gradientUnits="userSpaceOnUse">
<stop stop-color="#2B2B2B"/>
<stop offset="1" stop-color="#2B2B2B" stop-opacity="0"/>
</linearGradient>
<linearGradient id="paint15_linear_661_25177" x1="390.314" y1="451.547" x2="390.366" y2="557.162" gradientUnits="userSpaceOnUse">
<stop stop-color="#2B2B2B"/>
<stop offset="1" stop-color="#2B2B2B" stop-opacity="0"/>
</linearGradient>
<linearGradient id="paint16_linear_661_25177" x1="390.314" y1="538.283" x2="390.394" y2="669.895" gradientUnits="userSpaceOnUse">
<stop stop-color="#2B2B2B"/>
<stop offset="1" stop-color="#2B2B2B" stop-opacity="0"/>
</linearGradient>
<linearGradient id="paint17_linear_661_25177" x1="298.479" y1="104.596" x2="298.556" y2="245.957" gradientUnits="userSpaceOnUse">
<stop stop-color="#2B2B2B"/>
<stop offset="1" stop-color="#2B2B2B" stop-opacity="0"/>
</linearGradient>
<linearGradient id="paint18_linear_661_25177" x1="33.1661" y1="344.398" x2="33.2209" y2="463.012" gradientUnits="userSpaceOnUse">
<stop stop-color="#2B2B2B"/>
<stop offset="1" stop-color="#2B2B2B" stop-opacity="0"/>
</linearGradient>
<linearGradient id="paint19_linear_661_25177" x1="121.172" y1="395.422" x2="121.218" y2="502.661" gradientUnits="userSpaceOnUse">
<stop stop-color="#2B2B2B"/>
<stop offset="1" stop-color="#2B2B2B" stop-opacity="0"/>
</linearGradient>
<linearGradient id="paint20_linear_661_25177" x1="211.744" y1="448.992" x2="211.796" y2="564.356" gradientUnits="userSpaceOnUse">
<stop stop-color="#2B2B2B"/>
<stop offset="1" stop-color="#2B2B2B" stop-opacity="0"/>
</linearGradient>
<linearGradient id="paint21_linear_661_25177" x1="298.479" y1="502.566" x2="298.555" y2="642.303" gradientUnits="userSpaceOnUse">
<stop stop-color="#2B2B2B"/>
<stop offset="1" stop-color="#2B2B2B" stop-opacity="0"/>
</linearGradient>
<linearGradient id="paint22_linear_661_25177" x1="33.1661" y1="431.137" x2="33.2352" y2="564.374" gradientUnits="userSpaceOnUse">
<stop stop-color="#2B2B2B"/>
<stop offset="1" stop-color="#2B2B2B" stop-opacity="0"/>
</linearGradient>
<linearGradient id="paint23_linear_661_25177" x1="121.172" y1="482.158" x2="121.266" y2="634.893" gradientUnits="userSpaceOnUse">
<stop stop-color="#2B2B2B"/>
<stop offset="1" stop-color="#2B2B2B" stop-opacity="0"/>
</linearGradient>
<linearGradient id="paint24_linear_661_25177" x1="211.744" y1="535.73" x2="211.79" y2="644.595" gradientUnits="userSpaceOnUse">
<stop stop-color="#2B2B2B"/>
<stop offset="1" stop-color="#2B2B2B" stop-opacity="0"/>
</linearGradient>
<linearGradient id="paint25_linear_661_25177" x1="298.479" y1="589.303" x2="298.53" y2="704.666" gradientUnits="userSpaceOnUse">
<stop stop-color="#2B2B2B"/>
<stop offset="1" stop-color="#2B2B2B" stop-opacity="0"/>
</linearGradient>
</defs>
</svg>
