<svg width="56" height="56" viewBox="0 0 56 56" fill="none" xmlns="http://www.w3.org/2000/svg">
<mask id="path-1-inside-1_501_2604" fill="white">
<path d="M52.0684 38.164C50.4059 42.0955 47.8057 45.56 44.4949 48.2544C41.1842 50.9489 37.2639 52.7913 33.0766 53.6207C28.8893 54.45 24.5626 54.2409 20.4748 53.0118C16.387 51.7827 12.6625 49.5709 9.62698 46.5698C6.59143 43.5687 4.33726 39.8698 3.06153 35.7962C1.78581 31.7227 1.52738 27.3987 2.30883 23.2023C3.09028 19.0058 4.88782 15.0646 7.5443 11.7234C10.2008 8.38209 13.6353 5.74243 17.5476 4.03516"/>
</mask>
<path d="M50.2263 37.385C48.6911 41.0157 46.2898 44.215 43.2325 46.7032L45.7574 49.8056C49.3215 46.9049 52.1208 43.1753 53.9105 38.9429L50.2263 37.385ZM43.2325 46.7032C40.1752 49.1915 36.5548 50.8929 32.688 51.6588L33.4652 55.5825C37.9729 54.6897 42.1933 52.7063 45.7574 49.8056L43.2325 46.7032ZM32.688 51.6588C28.8212 52.4246 24.8257 52.2316 21.0507 51.0965L19.8989 54.9271C24.2996 56.2503 28.9574 56.4753 33.4652 55.5825L32.688 51.6588ZM21.0507 51.0965C17.2758 49.9615 13.8363 47.9189 11.0331 45.1476L8.22086 47.9921C11.4887 51.2228 15.4983 53.6039 19.8989 54.9271L21.0507 51.0965ZM11.0331 45.1476C8.22987 42.3762 6.14822 38.9603 4.97013 35.1985L1.15294 36.394C2.5263 40.7792 4.95299 44.7613 8.22086 47.9921L11.0331 45.1476ZM4.97013 35.1985C3.79204 31.4368 3.55338 27.4437 4.27503 23.5684L0.342626 22.8361C-0.498632 27.3538 -0.220419 32.0087 1.15294 36.394L4.97013 35.1985ZM4.27503 23.5684C4.99667 19.6931 6.65664 16.0536 9.10981 12.968L5.97879 10.4787C3.119 14.0757 1.18388 18.3185 0.342626 22.8361L4.27503 23.5684ZM9.10981 12.968C11.563 9.88247 14.7347 7.44483 18.3475 5.86822L16.7477 2.20209C12.536 4.04002 8.83858 6.88171 5.97879 10.4787L9.10981 12.968Z" fill="#808080" mask="url(#path-1-inside-1_501_2604)"/>
<path d="M51.2192 18.3808C52.3545 21.1217 52.9946 24.0394 53.1124 26.9985H29V2.88611C31.9591 3.00394 34.8769 3.64399 37.6177 4.77929C40.6669 6.04231 43.4375 7.89354 45.7712 10.2273C48.105 12.561 49.9562 15.3316 51.2192 18.3808Z" stroke="#FC3E24" stroke-width="2"/>
</svg>
