<svg width="250" height="36" viewBox="0 0 250 36" fill="none" xmlns="http://www.w3.org/2000/svg">
<path fill-rule="evenodd" clip-rule="evenodd" d="M0 27.3375C0 31.1334 0 33.2435 1.37823 34.6218C2.75645 36 4.86662 36 8.6625 36H27.3375C31.1334 36 33.2435 36 34.6218 34.6218C36 33.2435 36 31.1334 36 27.3375V8.6625C36 4.86662 36 2.75645 34.6218 1.37823C33.2435 0 31.1334 0 27.3375 0H8.6625C4.86662 0 2.75645 0 1.37823 1.37823C0 2.75645 0 4.86662 0 8.6625V27.3375Z" fill="#FC3E24"/>
<path d="M22.9048 15.5991H26.6374V13.4148H22.9048V10.0801H20.4856V18.8593C20.4856 21.262 21.7144 22.5657 24.289 22.5657H26.6374V20.376H24.7464C23.4753 20.376 22.9048 19.8749 22.9048 18.5804V15.5991Z" fill="white"/>
<path fill-rule="evenodd" clip-rule="evenodd" d="M14.5669 13.2481C13.5342 13.2481 12.5913 13.6169 11.9859 14.2781L11.7768 14.2785V13.4148H9.35742V25.9201H11.7768V21.461H11.9859C12.5464 22.0563 13.4555 22.4909 14.5669 22.4909C17.0539 22.4909 18.7509 20.5423 18.7509 17.8695C18.7509 15.1966 17.0539 13.2481 14.5669 13.2481ZM14.0405 20.3009C12.722 20.3009 11.7768 19.2783 11.7768 17.8695C11.7768 16.4606 12.722 15.438 14.0405 15.438C15.3679 15.438 16.3314 16.4606 16.3314 17.8695C16.3314 19.2782 15.3679 20.3009 14.0405 20.3009Z" fill="white"/>
<path fill-rule="evenodd" clip-rule="evenodd" d="M82.797 19.8435C82.797 21.4823 81.3515 22.909 78.4064 22.909C74.651 22.909 73.8463 20.3308 73.8463 19.6064H76.514C76.514 20.1359 77.0799 20.7914 78.4064 20.7914C79.7333 20.7914 80.2 20.3259 80.2 19.8435C80.2 19.3612 79.9786 18.9808 78.8717 18.8054L77.2765 18.5642C75.2008 18.2328 73.9735 17.3493 73.9735 15.691C73.9735 14.0327 75.4135 12.5693 78.1809 12.5693C81.2578 12.5693 82.5995 14.5876 82.5995 15.8719H79.9318C79.9318 15.2145 79.3177 14.6868 78.1804 14.6868C77.0436 14.6868 76.5705 15.0858 76.5705 15.691C76.5705 16.1588 76.9412 16.4045 77.8704 16.5414L79.5501 16.7953C81.6253 17.1067 82.797 18.0683 82.797 19.8435ZM92.1666 12.7643H96.2862V15.2141H92.1666V18.255C92.1666 19.7034 92.7958 20.2638 94.199 20.2638H96.2862V22.7136H93.6942C90.852 22.7136 89.4956 21.2547 89.4956 18.5669V8.93359H92.1666V12.7643ZM55.8356 20.4591C54.3805 20.4591 53.3369 19.3154 53.3369 17.7391C53.3369 16.1634 54.3805 15.0191 55.8356 15.0191C57.3008 15.0191 58.3646 16.1634 58.3646 17.7391C58.3646 19.3154 57.3008 20.4591 55.8356 20.4591ZM56.4166 12.5693C55.2766 12.5693 54.2358 12.9819 53.5675 13.7217V13.7222H53.3369V12.7647H50.666V26.5447H53.3369V21.757H53.5675C54.1862 22.423 55.1898 22.909 56.4166 22.909C59.162 22.909 61.0351 20.7293 61.0351 17.7391C61.0351 14.7494 59.162 12.5693 56.4166 12.5693ZM117.576 14.787C118.732 14.787 119.642 15.5187 120.005 16.6307H115.164C115.525 15.5187 116.429 14.787 117.576 14.787ZM117.576 12.5693C114.691 12.5693 112.353 14.7494 112.353 17.7391C112.353 20.7112 114.613 22.909 117.661 22.909C119.922 22.909 121.953 21.6374 122.633 19.6604H119.78C119.351 20.3177 118.522 20.6917 117.661 20.6917C116.308 20.6917 115.347 19.8113 115.075 18.5134H122.764L122.758 18.5057C122.793 18.2564 122.817 18.0025 122.817 17.7396C122.817 14.7494 120.48 12.5693 117.576 12.5693ZM97.9962 22.714H100.667V12.7643H97.9962V22.7136V22.714ZM97.9962 11.3834H100.667V8.93359H97.9962V11.3834ZM84.4689 22.714H87.1398V12.7643H84.4689V22.7136V22.714ZM84.4689 11.3834H87.1398V8.93359H84.4689V11.3834ZM67.4664 20.4591C65.9874 20.4591 64.914 19.3154 64.914 17.7391C64.914 16.1634 65.9874 15.0191 67.4659 15.0191C68.9555 15.0191 70.0363 16.1634 70.0363 17.7391C70.0363 19.3408 68.9798 20.4591 67.4659 20.4591H67.4664ZM67.4664 12.5693C64.581 12.5693 62.2431 14.749 62.2431 17.7391C62.2431 20.7112 64.5442 22.909 67.4659 22.909C70.406 22.909 72.7067 20.7293 72.7067 17.7391C72.7067 14.749 70.3693 12.5693 67.4659 12.5693H67.4664ZM109.301 12.7643H112.088L109.047 22.714H104.999L101.959 12.7647H104.744L106.811 20.2642H107.235L109.301 12.7647V12.7643ZM249.066 19.8435C249.066 21.4823 247.62 22.909 244.675 22.909C240.92 22.909 240.115 20.3308 240.115 19.6064H242.783C242.783 20.1359 243.348 20.7914 244.675 20.7914C246.002 20.7914 246.469 20.3259 246.469 19.8435C246.469 19.3612 246.247 18.9808 245.14 18.8054L243.545 18.5642C241.47 18.2328 240.242 17.3493 240.242 15.691C240.242 14.0327 241.683 12.5693 244.449 12.5693C247.527 12.5693 248.868 14.5876 248.868 15.8719H246.201C246.201 15.2145 245.586 14.6868 244.449 14.6868C243.313 14.6868 242.839 15.0858 242.839 15.691C242.839 16.1588 243.21 16.4045 244.139 16.5414L245.819 16.7953C247.894 17.1067 249.066 18.0683 249.066 19.8435ZM214.077 17.6417C214.077 16.0958 215.141 14.9729 216.606 14.9729C218.061 14.9729 219.104 16.0949 219.105 17.6408V17.6426C219.104 19.1884 218.061 20.3104 216.606 20.3104C215.141 20.3104 214.077 19.188 214.077 17.6417ZM219.105 13.7222H218.894L218.874 13.6999C218.206 12.9746 217.165 12.5693 216.025 12.5693C213.28 12.5693 211.407 14.7082 211.407 17.6417C211.407 20.5752 213.28 22.714 216.025 22.714C217.252 22.714 218.255 22.2371 218.874 21.5834H219.105V22.6088C219.105 24.0568 218.476 24.6171 217.072 24.6171H212.948V27.0669H217.577C220.419 27.0669 221.776 25.6086 221.776 22.9207V12.7647H219.105V13.7222ZM182.041 16.6978V22.7136H179.371V17.0981C179.371 15.8623 178.483 15.0196 177.223 15.0196C175.963 15.0196 175.075 15.8623 175.075 17.0981V22.7145H172.404V12.7643H175.075V13.7217H175.276C175.954 12.9692 176.964 12.5689 178.118 12.5689C180.427 12.5689 182.041 14.2603 182.041 16.6974V16.6978ZM195.461 22.7136H198.132V8.93359H195.461V22.714V22.7136ZM233.659 14.787C234.814 14.787 235.725 15.5187 236.088 16.6307H231.247C231.607 15.5187 232.511 14.787 233.659 14.787ZM233.659 12.5693C230.774 12.5693 228.436 14.7494 228.436 17.7391C228.436 20.7112 230.696 22.909 233.743 22.909C236.004 22.909 238.036 21.6374 238.716 19.6604H235.863C235.433 20.3177 234.604 20.6917 233.743 20.6917C232.391 20.6917 231.429 19.8113 231.157 18.5134H238.846L238.841 18.5057C238.876 18.2564 238.9 18.0025 238.9 17.7396C238.9 14.7494 236.562 12.5693 233.659 12.5693ZM224.132 22.714H226.802V12.7643H224.132V22.7136V22.714ZM224.132 11.3834H226.802V8.93359H224.132V11.3834ZM204.874 20.4591C203.395 20.4591 202.322 19.3154 202.322 17.7391C202.322 16.1634 203.395 15.0191 204.874 15.0191C206.363 15.0191 207.444 16.1634 207.444 17.7391C207.444 19.3408 206.387 20.4591 204.874 20.4591ZM204.874 12.5693C201.988 12.5693 199.651 14.749 199.651 17.7391C199.651 20.7112 201.952 22.909 204.874 22.909C207.814 22.909 210.115 20.7293 210.115 17.7391C210.115 14.749 207.777 12.5693 204.874 12.5693ZM188.7 20.4591C187.221 20.4591 186.149 19.3154 186.149 17.7391C186.149 16.1634 187.221 15.0191 188.7 15.0191C190.19 15.0191 191.27 16.1634 191.27 17.7391C191.27 19.3408 190.213 20.4591 188.7 20.4591ZM188.7 12.5693C185.815 12.5693 183.478 14.749 183.478 17.7391C183.478 20.7112 185.778 22.909 188.7 22.909C191.641 22.909 193.941 20.7293 193.941 17.7391C193.941 14.749 191.604 12.5693 188.7 12.5693ZM131.965 12.7643H136.085V15.2145H131.965V18.2555C131.965 19.7039 132.595 20.2642 133.998 20.2642H136.085V22.714H133.493C130.651 22.714 129.294 21.2552 129.294 18.5674V8.93359H131.965V12.7643ZM156.327 18.8276H159.081C158.729 21.2121 156.639 22.909 154.085 22.909C151.163 22.909 148.904 20.7112 148.904 17.7391C148.904 14.7494 151.199 12.5693 154.085 12.5693C156.607 12.5693 158.72 14.1379 159.08 16.5677H156.318C156.014 15.5514 155.186 15.0191 154.085 15.0191C152.606 15.0191 151.575 16.1634 151.575 17.7391C151.575 19.3154 152.606 20.4591 154.085 20.4591C155.208 20.4591 156.072 19.8317 156.327 18.8271V18.8276ZM170.238 16.6978V22.7136H167.568V17.0981C167.568 15.8623 166.68 15.0196 165.42 15.0196C164.159 15.0196 163.272 15.8623 163.272 17.0981V22.7145H160.601V8.93359H163.272V13.7222H163.473C164.151 12.9696 165.161 12.5693 166.315 12.5693C168.624 12.5693 170.238 14.2607 170.238 16.6978ZM142.372 14.787C143.527 14.787 144.438 15.5187 144.8 16.6307H139.96C140.32 15.5187 141.224 14.787 142.372 14.787ZM142.372 12.5693C139.487 12.5693 137.149 14.7494 137.149 17.7391C137.149 20.7112 139.409 22.909 142.457 22.909C144.718 22.909 146.748 21.6374 147.429 19.6604H144.575C144.146 20.3177 143.317 20.6917 142.457 20.6917C141.104 20.6917 140.143 19.8113 139.87 18.5134H147.559L147.554 18.5057C147.589 18.2564 147.612 18.0025 147.612 17.7396C147.612 14.7494 145.275 12.5693 142.372 12.5693Z" fill="#1B1B1B"/>
</svg>
