<svg width="188" height="28" viewBox="0 0 188 28" fill="none" xmlns="http://www.w3.org/2000/svg">
<path fill-rule="evenodd" clip-rule="evenodd" d="M0 21.0031C0 23.85 0 25.4327 1.03505 26.4663C2.07011 27.5 3.65485 27.5 6.50557 27.5H20.5306C23.3813 27.5 24.966 27.5 26.0011 26.4663C27.0361 25.4327 27.0361 23.85 27.0361 21.0031V6.99687C27.0361 4.14996 27.0361 2.56734 26.0011 1.53367C24.966 0.5 23.3813 0.5 20.5306 0.5H6.50557C3.65485 0.5 2.07011 0.5 1.03505 1.53367C0 2.56734 0 4.14996 0 6.99687V21.0031Z" fill="#FC3E24"/>
<path d="M17.2016 12.1998H20.0048V10.5616H17.2016V8.06055H15.3848V14.645C15.3848 16.447 16.3076 17.4248 18.2412 17.4248H20.0048V15.7825H18.5847C17.63 15.7825 17.2016 15.4066 17.2016 14.4358V12.1998Z" fill="white"/>
<path fill-rule="evenodd" clip-rule="evenodd" d="M10.9398 10.4365C10.1642 10.4365 9.45615 10.7131 9.00146 11.2091L8.84441 11.2094V10.5616H7.02747V19.9405H8.84441V16.5962H9.00146C9.42243 17.0427 10.1051 17.3686 10.9398 17.3686C12.8076 17.3686 14.082 15.9072 14.082 13.9026C14.082 11.8979 12.8076 10.4365 10.9398 10.4365ZM10.5444 15.7262C9.55429 15.7262 8.84441 14.9592 8.84441 13.9026C8.84441 12.8459 9.55429 12.079 10.5444 12.079C11.5413 12.079 12.265 12.8459 12.265 13.9026C12.265 14.9591 11.5413 15.7262 10.5444 15.7262Z" fill="white"/>
<path fill-rule="evenodd" clip-rule="evenodd" d="M62.1808 15.3817C62.1808 16.6108 61.0953 17.6807 58.8835 17.6807C56.0632 17.6807 55.4588 15.7472 55.4588 15.2038H57.4623C57.4623 15.601 57.8873 16.0926 58.8835 16.0926C59.88 16.0926 60.2305 15.7434 60.2305 15.3817C60.2305 15.0199 60.0642 14.7346 59.2329 14.6031L58.0349 14.4222C56.4761 14.1736 55.5544 13.511 55.5544 12.2673C55.5544 11.0235 56.6358 9.92602 58.7141 9.92602C61.0249 9.92602 62.0325 11.4397 62.0325 12.4029H60.0291C60.0291 11.9099 59.5679 11.5142 58.7138 11.5142C57.86 11.5142 57.5047 11.8134 57.5047 12.2673C57.5047 12.6181 57.7831 12.8024 58.4809 12.9051L59.7424 13.0955C61.3009 13.3291 62.1808 14.0502 62.1808 15.3817ZM69.2174 10.0722H72.3113V11.9096H69.2174V14.1903C69.2174 15.2766 69.69 15.6968 70.7438 15.6968H72.3113V17.5342H70.3647C68.2302 17.5342 67.2116 16.4401 67.2116 14.4242V7.19922H69.2174V10.0722ZM41.9327 15.8434C40.8399 15.8434 40.0562 14.9856 40.0562 13.8034C40.0562 12.6215 40.8399 11.7634 41.9327 11.7634C43.0331 11.7634 43.832 12.6215 43.832 13.8034C43.832 14.9856 43.0331 15.8434 41.9327 15.8434ZM42.3691 9.92602C41.5129 9.92602 40.7313 10.2354 40.2294 10.7903V10.7906H40.0562V10.0726H38.0504V20.4075H40.0562V16.8168H40.2294C40.694 17.3163 41.4477 17.6807 42.3691 17.6807C44.4309 17.6807 45.8376 16.046 45.8376 13.8034C45.8376 11.5611 44.4309 9.92602 42.3691 9.92602ZM88.3003 11.5893C89.1682 11.5893 89.8519 12.1381 90.124 12.9721H86.489C86.7594 12.1381 87.4383 11.5893 88.3003 11.5893ZM88.3003 9.92602C86.1333 9.92602 84.3779 11.5611 84.3779 13.8034C84.3779 16.0324 86.075 17.6807 88.3638 17.6807C90.0619 17.6807 91.587 16.727 92.0982 15.2443H89.955C89.6328 15.7373 89.0102 16.0178 88.3638 16.0178C87.3479 16.0178 86.6259 15.3575 86.4217 14.3841H92.1961L92.192 14.3783C92.2182 14.1913 92.2361 14.0009 92.2361 13.8037C92.2361 11.5611 90.4807 9.92602 88.3003 9.92602ZM73.5955 17.5345H75.601V10.0722H73.5955V17.5342V17.5345ZM73.5955 9.03658H75.601V7.19922H73.5955V9.03658ZM63.4364 17.5345H65.4423V10.0722H63.4364V17.5342V17.5345ZM63.4364 9.03658H65.4423V7.19922H63.4364V9.03658ZM50.6675 15.8434C49.5568 15.8434 48.7506 14.9856 48.7506 13.8034C48.7506 12.6215 49.5568 11.7634 50.6672 11.7634C51.7858 11.7634 52.5975 12.6215 52.5975 13.8034C52.5975 15.0046 51.8041 15.8434 50.6672 15.8434H50.6675ZM50.6675 9.92602C48.5006 9.92602 46.7448 11.5607 46.7448 13.8034C46.7448 16.0324 48.473 17.6807 50.6672 17.6807C52.8752 17.6807 54.603 16.046 54.603 13.8034C54.603 11.5607 52.8476 9.92602 50.6672 9.92602H50.6675ZM82.0857 10.0722H84.1782L81.8946 17.5345H78.8549L76.5714 10.0726H78.6635L80.2158 15.6972H80.5338L82.0857 10.0726V10.0722ZM187.05 15.3817C187.05 16.6108 185.964 17.6807 183.752 17.6807C180.932 17.6807 180.328 15.7472 180.328 15.2038H182.331C182.331 15.601 182.756 16.0926 183.752 16.0926C184.748 16.0926 185.099 15.7434 185.099 15.3817C185.099 15.0199 184.933 14.7346 184.101 14.6031L182.903 14.4222C181.345 14.1736 180.423 13.511 180.423 12.2673C180.423 11.0235 181.505 9.92602 183.582 9.92602C185.894 9.92602 186.901 11.4397 186.901 12.4029H184.898C184.898 11.9099 184.436 11.5142 183.582 11.5142C182.729 11.5142 182.373 11.8134 182.373 12.2673C182.373 12.6181 182.651 12.8024 183.349 12.9051L184.611 13.0955C186.17 13.3291 187.05 14.0502 187.05 15.3817ZM160.773 13.7303C160.773 12.5709 161.571 11.7287 162.672 11.7287C163.765 11.7287 164.548 12.5702 164.549 13.7296V13.731C164.548 14.8904 163.765 15.7319 162.672 15.7319C161.571 15.7319 160.773 14.89 160.773 13.7303ZM164.549 10.7906H164.39L164.375 10.774C163.873 10.23 163.092 9.92602 162.236 9.92602C160.174 9.92602 158.767 11.5301 158.767 13.7303C158.767 15.9304 160.174 17.5345 162.236 17.5345C163.157 17.5345 163.91 17.1769 164.375 16.6866H164.549V17.4557C164.549 18.5416 164.076 18.9619 163.022 18.9619H159.925V20.7992H163.401C165.536 20.7992 166.554 19.7054 166.554 17.6896V10.0726H164.549V10.7906ZM136.714 13.0224V17.5342H134.708V13.3226C134.708 12.3958 134.042 11.7637 133.095 11.7637C132.149 11.7637 131.482 12.3958 131.482 13.3226V17.5349H129.476V10.0722H131.482V10.7903H131.633C132.142 10.2259 132.9 9.92568 133.767 9.92568C135.502 9.92568 136.714 11.1942 136.714 13.0221V13.0224ZM146.792 17.5342H148.798V7.19922H146.792V17.5345V17.5342ZM175.479 11.5893C176.347 11.5893 177.03 12.1381 177.303 12.9721H173.667C173.938 12.1381 174.617 11.5893 175.479 11.5893ZM175.479 9.92602C173.312 9.92602 171.557 11.5611 171.557 13.8034C171.557 16.0324 173.253 17.6807 175.542 17.6807C177.24 17.6807 178.766 16.727 179.277 15.2443H177.134C176.811 15.7373 176.189 16.0178 175.542 16.0178C174.527 16.0178 173.804 15.3575 173.6 14.3841H179.374L179.371 14.3783C179.397 14.1913 179.414 14.0009 179.414 13.8037C179.414 11.5611 177.659 9.92602 175.479 9.92602ZM168.324 17.5345H170.329V10.0722H168.324V17.5342V17.5345ZM168.324 9.03658H170.329V7.19922H168.324V9.03658ZM153.861 15.8434C152.75 15.8434 151.945 14.9856 151.945 13.8034C151.945 12.6215 152.75 11.7634 153.861 11.7634C154.979 11.7634 155.791 12.6215 155.791 13.8034C155.791 15.0046 154.998 15.8434 153.861 15.8434ZM153.861 9.92602C151.694 9.92602 149.939 11.5607 149.939 13.8034C149.939 16.0324 151.667 17.6807 153.861 17.6807C156.069 17.6807 157.797 16.046 157.797 13.8034C157.797 11.5607 156.042 9.92602 153.861 9.92602ZM141.715 15.8434C140.604 15.8434 139.798 14.9856 139.798 13.8034C139.798 12.6215 140.604 11.7634 141.715 11.7634C142.833 11.7634 143.645 12.6215 143.645 13.8034C143.645 15.0046 142.851 15.8434 141.715 15.8434ZM141.714 9.92602C139.548 9.92602 137.792 11.5607 137.792 13.8034C137.792 16.0324 139.52 17.6807 141.714 17.6807C143.923 17.6807 145.651 16.046 145.651 13.8034C145.651 11.5607 143.895 9.92602 141.714 9.92602ZM99.1065 10.0722H102.201V11.9099H99.1065V14.1906C99.1065 15.2769 99.5791 15.6972 100.633 15.6972H102.201V17.5345H100.254C98.1196 17.5345 97.1006 16.4404 97.1006 14.4246V7.19922H99.1065V10.0722ZM117.402 14.6197H119.471C119.206 16.4081 117.637 17.6807 115.718 17.6807C113.524 17.6807 111.828 16.0324 111.828 13.8034C111.828 11.5611 113.551 9.92602 115.718 9.92602C117.613 9.92602 119.2 11.1024 119.469 12.9248H117.396C117.167 12.1625 116.545 11.7634 115.718 11.7634C114.608 11.7634 113.833 12.6215 113.833 13.8034C113.833 14.9856 114.608 15.8434 115.718 15.8434C116.562 15.8434 117.211 15.3728 117.402 14.6194V14.6197ZM127.85 13.0224V17.5342H125.844V13.3226C125.844 12.3958 125.177 11.7637 124.231 11.7637C123.284 11.7637 122.618 12.3958 122.618 13.3226V17.5349H120.612V7.19922H122.618V10.7906H122.769C123.278 10.2262 124.036 9.92602 124.903 9.92602C126.637 9.92602 127.85 11.1946 127.85 13.0224ZM106.922 11.5893C107.79 11.5893 108.473 12.1381 108.745 12.9721H105.111C105.381 12.1381 106.06 11.5893 106.922 11.5893ZM106.922 9.92602C104.755 9.92602 103 11.5611 103 13.8034C103 16.0324 104.696 17.6807 106.985 17.6807C108.684 17.6807 110.209 16.727 110.719 15.2443H108.577C108.254 15.7373 107.632 16.0178 106.985 16.0178C105.97 16.0178 105.248 15.3575 105.043 14.3841H110.817L110.814 14.3783C110.84 14.1913 110.857 14.0009 110.857 13.8037C110.857 11.5611 109.102 9.92602 106.922 9.92602Z" fill="#1B1B1B"/>
</svg>
