<svg width="229" height="229" viewBox="0 0 229 229" fill="none" xmlns="http://www.w3.org/2000/svg">
<mask id="path-1-inside-1_2062_7069" fill="white">
<path fill-rule="evenodd" clip-rule="evenodd" d="M192.497 138.307C222.948 138.307 247.633 162.992 247.633 193.442C247.633 223.893 222.948 248.578 192.497 248.578C162.047 248.578 137.362 223.893 137.362 193.442V138.307H137.362V166.445H165.5V138.307H192.497Z"/>
</mask>
<path d="M137.362 138.307H136.362V137.307H137.362V138.307ZM137.362 138.307V137.307H138.362V138.307H137.362ZM137.362 166.445V167.445H136.362V166.445H137.362ZM165.5 166.445H166.5V167.445H165.5V166.445ZM165.5 138.307H164.5V137.307H165.5V138.307ZM246.633 193.442C246.633 163.544 222.396 139.307 192.497 139.307V137.307C223.5 137.307 248.633 162.439 248.633 193.442H246.633ZM192.497 247.578C222.396 247.578 246.633 223.34 246.633 193.442H248.633C248.633 224.445 223.5 249.578 192.497 249.578V247.578ZM138.362 193.442C138.362 223.34 162.599 247.578 192.497 247.578V249.578C161.495 249.578 136.362 224.445 136.362 193.442H138.362ZM138.362 138.307V193.442H136.362V138.307H138.362ZM137.362 139.307H137.362V137.307H137.362V139.307ZM138.362 138.307V166.445H136.362V138.307H138.362ZM137.362 165.445H165.5V167.445H137.362V165.445ZM164.5 166.445V138.307H166.5V166.445H164.5ZM192.497 139.307H165.5V137.307H192.497V139.307Z" fill="#F4F4F4" mask="url(#path-1-inside-1_2062_7069)"/>
<mask id="path-3-inside-2_2062_7069" fill="white">
<path fill-rule="evenodd" clip-rule="evenodd" d="M192.497 107.399C240.017 107.399 278.539 145.922 278.539 193.441C278.539 240.961 240.017 279.483 192.497 279.483C144.978 279.483 106.455 240.961 106.455 193.441V151.31H150.366V107.399H192.497Z"/>
</mask>
<path d="M106.455 151.31H105.455V150.31H106.455V151.31ZM150.366 151.31H151.366V152.31H150.366V151.31ZM150.366 107.399H149.366V106.399H150.366V107.399ZM277.539 193.441C277.539 146.474 239.465 108.399 192.497 108.399V106.399C240.569 106.399 279.539 145.369 279.539 193.441H277.539ZM192.497 278.483C239.465 278.483 277.539 240.409 277.539 193.441H279.539C279.539 241.513 240.569 280.483 192.497 280.483V278.483ZM107.455 193.441C107.455 240.409 145.53 278.483 192.497 278.483V280.483C144.425 280.483 105.455 241.513 105.455 193.441H107.455ZM107.455 151.31V193.441H105.455V151.31H107.455ZM106.455 150.31H150.366V152.31H106.455V150.31ZM149.366 151.31V107.399H151.366V151.31H149.366ZM192.497 108.399H150.366V106.399H192.497V108.399Z" fill="#F6F6F6" mask="url(#path-3-inside-2_2062_7069)"/>
<mask id="path-5-inside-3_2062_7069" fill="white">
<path fill-rule="evenodd" clip-rule="evenodd" d="M192.5 58.9424C266.782 58.9424 327 119.16 327 193.442C327 267.725 266.782 327.942 192.5 327.942C118.218 327.942 58 267.725 58 193.442V58.9424H58.0007V127.584H126.642V58.9424H192.5Z"/>
</mask>
<path d="M58 58.9424H57V57.9424H58V58.9424ZM58.0007 58.9424V57.9424H59.0007V58.9424H58.0007ZM58.0007 127.584V128.584H57.0007V127.584H58.0007ZM126.642 127.584H127.642V128.584H126.642V127.584ZM126.642 58.9424H125.642V57.9424H126.642V58.9424ZM326 193.442C326 119.712 266.23 59.9424 192.5 59.9424V57.9424C267.335 57.9424 328 118.608 328 193.442H326ZM192.5 326.942C266.23 326.942 326 267.172 326 193.442H328C328 268.277 267.335 328.942 192.5 328.942V326.942ZM59 193.442C59 267.172 118.77 326.942 192.5 326.942V328.942C117.665 328.942 57 268.277 57 193.442H59ZM59 58.9424V193.442H57V58.9424H59ZM58.0007 59.9424H58V57.9424H58.0007V59.9424ZM59.0007 58.9424V127.584H57.0007V58.9424H59.0007ZM58.0007 126.584H126.642V128.584H58.0007V126.584ZM125.642 127.584V58.9424H127.642V127.584H125.642ZM192.5 59.9424H126.642V57.9424H192.5V59.9424Z" fill="#F7F7F7" mask="url(#path-5-inside-3_2062_7069)"/>
<mask id="path-7-inside-4_2062_7069" fill="white">
<path fill-rule="evenodd" clip-rule="evenodd" d="M192.5 0.942383C298.815 0.942383 385 87.1276 385 193.442C385 299.757 298.815 385.942 192.5 385.942C86.1852 385.942 0 299.757 0 193.442V99.1838H98.2403V0.942383H192.5Z"/>
</mask>
<path d="M0 99.1838H-1V98.1838H0V99.1838ZM98.2403 99.1838H99.2403V100.184H98.2403V99.1838ZM98.2403 0.942383H97.2403V-0.0576172H98.2403V0.942383ZM384 193.442C384 87.6799 298.263 1.94238 192.5 1.94238V-0.0576172C299.367 -0.0576172 386 86.5753 386 193.442H384ZM192.5 384.942C298.263 384.942 384 299.205 384 193.442H386C386 300.309 299.367 386.942 192.5 386.942V384.942ZM1 193.442C1 299.205 86.7375 384.942 192.5 384.942V386.942C85.6329 386.942 -1 300.309 -1 193.442H1ZM1 99.1838V193.442H-1V99.1838H1ZM0 98.1838H98.2403V100.184H0V98.1838ZM97.2403 99.1838V0.942383H99.2403V99.1838H97.2403ZM192.5 1.94238H98.2403V-0.0576172H192.5V1.94238Z" fill="#FAFAFA" mask="url(#path-7-inside-4_2062_7069)"/>
<mask id="path-9-inside-5_2062_7069" fill="white">
<path fill-rule="evenodd" clip-rule="evenodd" d="M192.501 165.78C207.779 165.78 220.164 178.165 220.164 193.443C220.164 208.721 207.779 221.107 192.501 221.107C177.223 221.107 164.838 208.721 164.838 193.443L164.838 179.898H178.956V165.78H192.501Z"/>
</mask>
<path fill-rule="evenodd" clip-rule="evenodd" d="M192.501 165.78C207.779 165.78 220.164 178.165 220.164 193.443C220.164 208.721 207.779 221.107 192.501 221.107C177.223 221.107 164.838 208.721 164.838 193.443L164.838 179.898H178.956V165.78H192.501Z" fill="white"/>
<path d="M164.838 193.443H165.838H164.838ZM164.838 179.898H163.838V178.898H164.838V179.898ZM178.956 179.898H179.956V180.898H178.956V179.898ZM178.956 165.78H177.956V164.78H178.956V165.78ZM219.164 193.443C219.164 178.718 207.227 166.78 192.501 166.78V164.78C208.331 164.78 221.164 177.613 221.164 193.443H219.164ZM192.501 220.107C207.227 220.107 219.164 208.169 219.164 193.443H221.164C221.164 209.274 208.331 222.107 192.501 222.107V220.107ZM165.838 193.443C165.838 208.169 177.775 220.107 192.501 220.107V222.107C176.671 222.107 163.838 209.274 163.838 193.443H165.838ZM165.838 179.898L165.838 193.443H163.838L163.838 179.898H165.838ZM164.838 178.898H178.956V180.898H164.838V178.898ZM177.956 179.898V165.78H179.956V179.898H177.956ZM192.501 166.78H178.956V164.78H192.501V166.78Z" fill="#F0F0F0" mask="url(#path-9-inside-5_2062_7069)"/>
<circle cx="3.8156" cy="3.8156" r="3.3156" transform="matrix(-1 0 0 1 130.633 122.942)" fill="white" stroke="#FC3E24"/>
<circle cx="2.67092" cy="2.67092" r="2.17092" transform="matrix(-1 0 0 1 129.352 55.9424)" fill="white" stroke="#F7F7F7"/>
<g clip-path="url(#clip0_2062_7069)">
<path d="M199.062 186.224H185.938C185.575 186.224 185.281 186.517 185.281 186.88V200.005C185.281 200.367 185.575 200.661 185.938 200.661H199.062C199.425 200.661 199.719 200.367 199.719 200.005V186.88C199.719 186.517 199.425 186.224 199.062 186.224Z" stroke="#FC3E24" stroke-linecap="round" stroke-linejoin="round"/>
<path d="M196.438 184.911V187.536" stroke="#FC3E24" stroke-linecap="round" stroke-linejoin="round"/>
<path d="M188.562 184.911V187.536" stroke="#FC3E24" stroke-linecap="round" stroke-linejoin="round"/>
<path d="M185.281 190.161H199.719" stroke="#FC3E24" stroke-linecap="round" stroke-linejoin="round"/>
</g>
<defs>
<clipPath id="clip0_2062_7069">
<rect width="21" height="21" fill="white" transform="translate(182 182.942)"/>
</clipPath>
</defs>
</svg>
