<svg width="134" height="134" viewBox="0 0 134 134" fill="none" xmlns="http://www.w3.org/2000/svg">
<mask id="path-1-inside-1_2062_7237" fill="white">
<path fill-rule="evenodd" clip-rule="evenodd" d="M103.504 64.0479C126.836 64.0479 145.75 82.9622 145.75 106.294C145.75 129.626 126.836 148.541 103.504 148.541C80.1716 148.541 61.2573 129.626 61.2573 106.294V85.6081H82.8164V64.0479H103.504Z"/>
</mask>
<path d="M61.2573 85.6081H60.2573V84.6081H61.2573V85.6081ZM82.8164 85.6081H83.8164V86.6081H82.8164V85.6081ZM82.8164 64.0479H81.8164V63.0479H82.8164V64.0479ZM144.75 106.294C144.75 83.5145 126.283 65.0479 103.504 65.0479V63.0479C127.388 63.0479 146.75 82.4099 146.75 106.294H144.75ZM103.504 147.541C126.283 147.541 144.75 129.074 144.75 106.294H146.75C146.75 130.178 127.388 149.541 103.504 149.541V147.541ZM62.2573 106.294C62.2573 129.074 80.7239 147.541 103.504 147.541V149.541C79.6194 149.541 60.2573 130.178 60.2573 106.294H62.2573ZM62.2573 85.6081V106.294H60.2573V85.6081H62.2573ZM61.2573 84.6081H82.8164V86.6081H61.2573V84.6081ZM81.8164 85.6081V64.0479H83.8164V85.6081H81.8164ZM103.504 65.0479H82.8164V63.0479H103.504V65.0479Z" fill="#F4F4F4" mask="url(#path-1-inside-1_2062_7237)"/>
<mask id="path-3-inside-2_2062_7237" fill="white">
<path fill-rule="evenodd" clip-rule="evenodd" d="M103.502 40.3662C139.913 40.3662 169.43 69.883 169.43 106.294C169.43 142.705 139.913 172.222 103.502 172.222C67.0911 172.222 37.5743 142.705 37.5743 106.294V74.0121H71.2188V40.3662H103.502Z"/>
</mask>
<path d="M37.5743 74.0121H36.5743V73.0121H37.5743V74.0121ZM71.2188 74.0121H72.2188V75.0121H71.2188V74.0121ZM71.2188 40.3662H70.2188V39.3662H71.2188V40.3662ZM168.43 106.294C168.43 70.4353 139.361 41.3662 103.502 41.3662V39.3662C140.465 39.3662 170.43 69.3307 170.43 106.294H168.43ZM103.502 171.222C139.361 171.222 168.43 142.152 168.43 106.294H170.43C170.43 143.257 140.465 173.222 103.502 173.222V171.222ZM38.5743 106.294C38.5743 142.153 67.6434 171.222 103.502 171.222V173.222C66.5388 173.222 36.5743 143.257 36.5743 106.294H38.5743ZM38.5743 74.0121V106.294H36.5743V74.0121H38.5743ZM37.5743 73.0121H71.2188V75.0121H37.5743V73.0121ZM70.2188 74.0121V40.3662H72.2188V74.0121H70.2188ZM103.502 41.3662H71.2188V39.3662H103.502V41.3662Z" fill="#F6F6F6" mask="url(#path-3-inside-2_2062_7237)"/>
<mask id="path-5-inside-3_2062_7237" fill="white">
<path fill-rule="evenodd" clip-rule="evenodd" d="M103.505 3.2373C160.422 3.2373 206.562 49.3778 206.562 106.295C206.562 163.212 160.422 209.353 103.505 209.353C46.5876 209.353 0.447128 163.212 0.447128 106.295V3.2373H0.448013V55.8323H53.043V3.2373H103.505Z"/>
</mask>
<path d="M0.447128 3.2373H-0.552872V2.2373H0.447128V3.2373ZM0.448013 3.2373V2.2373H1.44801V3.2373H0.448013ZM0.448013 55.8323V56.8323H-0.551987V55.8323H0.448013ZM53.043 55.8323H54.043V56.8323H53.043V55.8323ZM53.043 3.2373H52.043V2.2373H53.043V3.2373ZM205.562 106.295C205.562 49.9301 159.87 4.2373 103.505 4.2373V2.2373C160.974 2.2373 207.562 48.8255 207.562 106.295H205.562ZM103.505 208.353C159.87 208.353 205.562 162.66 205.562 106.295H207.562C207.562 163.764 160.974 210.353 103.505 210.353V208.353ZM1.44713 106.295C1.44713 162.66 47.1399 208.353 103.505 208.353V210.353C46.0353 210.353 -0.552872 163.764 -0.552872 106.295H1.44713ZM1.44713 3.2373V106.295H-0.552872V3.2373H1.44713ZM0.448013 4.2373H0.447128V2.2373H0.448013V4.2373ZM1.44801 3.2373V55.8323H-0.551987V3.2373H1.44801ZM0.448013 54.8323H53.043V56.8323H0.448013V54.8323ZM52.043 55.8323V3.2373H54.043V55.8323H52.043ZM103.505 4.2373H53.043V2.2373H103.505V4.2373Z" fill="#F7F7F7" mask="url(#path-5-inside-3_2062_7237)"/>
<mask id="path-7-inside-4_2062_7237" fill="white">
<path fill-rule="evenodd" clip-rule="evenodd" d="M103.507 85.1006C115.213 85.1006 124.703 94.5905 124.703 106.297C124.703 118.003 115.213 127.493 103.507 127.493C91.8005 127.493 82.3106 118.003 82.3106 106.297V85.1006H82.3117V95.918H93.1291V85.1006H103.507Z"/>
</mask>
<path fill-rule="evenodd" clip-rule="evenodd" d="M103.507 85.1006C115.213 85.1006 124.703 94.5905 124.703 106.297C124.703 118.003 115.213 127.493 103.507 127.493C91.8005 127.493 82.3106 118.003 82.3106 106.297V85.1006H82.3117V95.918H93.1291V85.1006H103.507Z" fill="white"/>
<path d="M82.3106 85.1006H81.3106V84.1006H82.3106V85.1006ZM82.3117 85.1006V84.1006H83.3117V85.1006H82.3117ZM82.3117 95.918V96.918H81.3117V95.918H82.3117ZM93.1291 95.918H94.1291V96.918H93.1291V95.918ZM93.1291 85.1006H92.1291V84.1006H93.1291V85.1006ZM123.703 106.297C123.703 95.1428 114.661 86.1006 103.507 86.1006V84.1006C115.766 84.1006 125.703 94.0382 125.703 106.297H123.703ZM103.507 126.493C114.661 126.493 123.703 117.451 123.703 106.297H125.703C125.703 118.556 115.766 128.493 103.507 128.493V126.493ZM83.3106 106.297C83.3106 117.451 92.3528 126.493 103.507 126.493V128.493C91.2482 128.493 81.3106 118.556 81.3106 106.297H83.3106ZM83.3106 85.1006V106.297H81.3106V85.1006H83.3106ZM82.3117 86.1006H82.3106V84.1006H82.3117V86.1006ZM83.3117 85.1006V95.918H81.3117V85.1006H83.3117ZM82.3117 94.918H93.1291V96.918H82.3117V94.918ZM92.1291 95.918V85.1006H94.1291V95.918H92.1291ZM103.507 86.1006H93.1291V84.1006H103.507V86.1006Z" fill="#F0F0F0" mask="url(#path-7-inside-4_2062_7237)"/>
<circle cx="2.92362" cy="2.92362" r="2.42362" transform="matrix(-1 0 0 1 56.1016 52.2764)" fill="white" stroke="#F7F7F7"/>
<circle cx="2.04654" cy="2.04654" r="1.54654" transform="matrix(-1 0 0 1 55.125 0.938477)" fill="white" stroke="#F7F7F7"/>
</svg>
