<svg width="528" height="530" viewBox="0 0 528 530" fill="none" xmlns="http://www.w3.org/2000/svg">
<path d="M60.1973 184.868C60.1973 116.595 115.544 61.248 183.817 61.248" stroke="#FC3E24" stroke-opacity="0.2" stroke-linejoin="round" stroke-dasharray="2 4"/>
<path d="M307.438 184.868C307.438 253.142 252.092 308.488 183.818 308.488" stroke="#808080" stroke-opacity="0.2" stroke-linejoin="round" stroke-dasharray="2 4"/>
<path d="M170.295 89.2139L198.389 48.3428H254.578" stroke="#FC3E24" stroke-opacity="0.2"/>
<path d="M179.873 276.965L151.778 317.836L93.6741 317.836" stroke="#808080" stroke-opacity="0.5"/>
<path d="M266.21 48.3428C266.21 53.7098 261.86 58.0605 256.494 58.0605C251.127 58.0605 246.777 53.7098 246.777 48.3428C246.777 42.9757 251.127 38.625 256.494 38.625C261.86 38.625 266.21 42.9757 266.21 48.3428Z" fill="#F3F4F5" stroke="#FC3E24"/>
<path d="M82.0421 317.836C82.0421 312.469 86.3923 308.118 91.7583 308.118C97.1243 308.118 101.474 312.469 101.474 317.836C101.474 323.203 97.1243 327.554 91.7583 327.554C86.3923 327.554 82.0421 323.203 82.0421 317.836Z" fill="#F3F4F5" stroke="#FC3E24"/>
<g opacity="0.4">
<mask id="path-7-inside-1_537_6643" fill="white">
<path fill-rule="evenodd" clip-rule="evenodd" d="M183.705 128.808C214.737 128.808 239.894 153.968 239.894 185.005C239.894 216.043 214.737 241.203 183.705 241.203C169.651 241.203 156.803 236.043 146.95 227.514L118.011 256.458C135.295 272.362 158.366 282.074 183.705 282.074C237.306 282.074 280.758 238.615 280.758 185.005C280.758 131.396 237.306 87.9368 183.705 87.9365V128.808Z"/>
</mask>
<path fill-rule="evenodd" clip-rule="evenodd" d="M183.705 128.808C214.737 128.808 239.894 153.968 239.894 185.005C239.894 216.043 214.737 241.203 183.705 241.203C169.651 241.203 156.803 236.043 146.95 227.514L118.011 256.458C135.295 272.362 158.366 282.074 183.705 282.074C237.306 282.074 280.758 238.615 280.758 185.005C280.758 131.396 237.306 87.9368 183.705 87.9365V128.808Z" fill="#F3F4F5"/>
<path d="M183.705 128.808H182.705V129.808L183.705 129.808L183.705 128.808ZM146.95 227.514L147.604 226.758L146.901 226.148L146.243 226.807L146.95 227.514ZM118.011 256.458L117.304 255.75L116.567 256.488L117.334 257.193L118.011 256.458ZM183.705 87.9365L183.705 86.9365L182.705 86.9365V87.9365H183.705ZM240.894 185.005C240.894 153.416 215.29 127.808 183.705 127.808L183.705 129.808C214.185 129.808 238.894 154.521 238.894 185.005H240.894ZM183.705 242.203C215.289 242.203 240.894 216.595 240.894 185.005H238.894C238.894 215.49 214.184 240.203 183.705 240.203V242.203ZM146.295 228.27C156.323 236.95 169.402 242.203 183.705 242.203V240.203C169.901 240.203 157.282 235.136 147.604 226.758L146.295 228.27ZM118.718 257.165L147.657 228.221L146.243 226.807L117.304 255.75L118.718 257.165ZM117.334 257.193C134.795 273.261 158.105 283.074 183.705 283.074V281.074C158.627 281.074 135.795 271.463 118.688 255.722L117.334 257.193ZM183.705 283.074C237.858 283.074 281.758 239.167 281.758 185.005H279.758C279.758 238.063 236.753 281.074 183.705 281.074V283.074ZM281.758 185.005C281.758 130.844 237.859 86.9368 183.705 86.9365L183.705 88.9365C236.754 88.9368 279.758 131.948 279.758 185.005H281.758ZM184.705 128.808V87.9365H182.705V128.808H184.705Z" fill="#808080" fill-opacity="0.4" mask="url(#path-7-inside-1_537_6643)"/>
<path d="M146.831 228.463L118.84 256.455L117.956 255.571L117.661 254.687L143.295 226.99L146.536 227.874L147.125 228.758L146.831 228.463Z" fill="#F3F4F5"/>
<path d="M183.366 88.5088H184.25L184.545 88.8034L185.134 127.402L184.25 128.286H183.366V88.5088Z" fill="#F3F4F5"/>
<mask id="path-11-inside-2_537_6643" fill="white">
<path fill-rule="evenodd" clip-rule="evenodd" d="M146.949 227.513C135.046 217.209 127.515 201.987 127.515 185.005C127.515 153.968 152.672 128.808 183.704 128.808V87.9365C130.103 87.9366 86.6504 131.396 86.6504 185.005C86.6504 213.272 98.7308 238.717 118.01 256.457L146.949 227.513Z"/>
</mask>
<path fill-rule="evenodd" clip-rule="evenodd" d="M146.949 227.513C135.046 217.209 127.515 201.987 127.515 185.005C127.515 153.968 152.672 128.808 183.704 128.808V87.9365C130.103 87.9366 86.6504 131.396 86.6504 185.005C86.6504 213.272 98.7308 238.717 118.01 256.457L146.949 227.513Z" fill="#F3F4F5"/>
<path d="M146.949 227.513L147.656 228.22L148.416 227.461L147.603 226.757L146.949 227.513ZM183.704 128.808V129.808L184.704 129.808V128.808H183.704ZM183.704 87.9365H184.704V86.9365L183.704 86.9365V87.9365ZM118.01 256.457L117.333 257.193L118.039 257.843L118.717 257.164L118.01 256.457ZM126.515 185.005C126.515 202.289 134.181 217.783 146.294 228.269L147.603 226.757C135.91 216.635 128.515 201.684 128.515 185.005H126.515ZM183.704 127.808C152.119 127.808 126.515 153.416 126.515 185.005H128.515C128.515 154.52 153.224 129.808 183.704 129.808V127.808ZM184.704 128.808V87.9365H182.704V128.808H184.704ZM183.704 86.9365C129.55 86.9366 85.6504 130.844 85.6504 185.005H87.6504C87.6504 131.948 130.655 88.9366 183.704 88.9365V86.9365ZM85.6504 185.005C85.6504 213.563 97.8565 239.271 117.333 257.193L118.687 255.721C99.6051 238.163 87.6504 212.981 87.6504 185.005H85.6504ZM118.717 257.164L147.656 228.22L146.242 226.806L117.303 255.75L118.717 257.164Z" fill="#FC3E24" mask="url(#path-11-inside-2_537_6643)"/>
</g>
<path d="M221.514 185.005C221.514 205.891 204.585 222.822 183.703 222.822C162.821 222.822 145.893 205.891 145.893 185.005C145.893 164.119 162.821 147.188 183.703 147.188C204.585 147.188 221.514 164.119 221.514 185.005Z" stroke="#808080" stroke-opacity="0.4"/>
<path d="M183.661 529C373.401 529 527.215 375.054 527.215 185.152C527.215 117.406 507.64 54.237 473.843 1" stroke="#808080" stroke-opacity="0.05"/>
<path d="M183.661 418.804C312.541 418.804 417.018 314.194 417.018 185.152C417.018 110.354 381.916 43.7658 327.306 1" stroke="#808080" stroke-opacity="0.08"/>
<path opacity="0.5" d="M304.56 64.1255C371.244 130.81 371.244 238.926 304.56 305.611" stroke="#808080" stroke-opacity="0.1" stroke-linejoin="round"/>
<path opacity="0.5" d="M65.7426 305.611C-0.941678 238.926 -0.941678 130.81 65.7426 64.1255" stroke="url(#paint0_linear_537_6643)" stroke-linejoin="round"/>
<defs>
<linearGradient id="paint0_linear_537_6643" x1="-42.1044" y1="168.86" x2="133.538" y2="175.658" gradientUnits="userSpaceOnUse">
<stop stop-color="#808080"/>
<stop offset="1" stop-color="#808080" stop-opacity="0"/>
</linearGradient>
</defs>
</svg>
