<svg width="159" height="112" viewBox="0 0 159 112" fill="none" xmlns="http://www.w3.org/2000/svg">
<g clip-path="url(#clip0_2078_7897)">
<path d="M131 88.9375V56.5625" stroke="#FC3E24" stroke-linecap="round" stroke-linejoin="round"/>
<mask id="path-2-inside-1_2078_7897" fill="white">
<path d="M156.438 88.9375V105.125C156.438 105.738 156.194 106.327 155.76 106.76C155.327 107.194 154.738 107.438 154.125 107.438H107.875C107.262 107.438 106.673 107.194 106.24 106.76C105.806 106.327 105.562 105.738 105.562 105.125V88.9375"/>
</mask>
<path d="M155.438 88.9375V105.125H157.438V88.9375H155.438ZM155.438 105.125C155.438 105.473 155.299 105.807 155.053 106.053L156.467 107.467C157.089 106.846 157.438 106.004 157.438 105.125H155.438ZM155.053 106.053C154.807 106.299 154.473 106.438 154.125 106.438V108.438C155.004 108.438 155.846 108.089 156.467 107.467L155.053 106.053ZM154.125 106.438H107.875V108.438H154.125V106.438ZM107.875 106.438C107.527 106.438 107.193 106.299 106.947 106.053L105.533 107.467C106.154 108.089 106.996 108.438 107.875 108.438V106.438ZM106.947 106.053C106.701 105.807 106.562 105.473 106.562 105.125H104.562C104.562 106.004 104.911 106.846 105.533 107.467L106.947 106.053ZM106.562 105.125V88.9375H104.562V105.125H106.562Z" fill="#808080" fill-opacity="0.4" mask="url(#path-2-inside-1_2078_7897)"/>
<path d="M142.562 77.375L131 88.9375L119.438 77.375" stroke="#FC3E24" stroke-linecap="round" stroke-linejoin="round"/>
</g>
<circle opacity="0.5" cx="121.5" cy="81.5" r="59" stroke="#808080" stroke-opacity="0.4"/>
<circle opacity="0.3" cx="121.5" cy="81.5" r="92" stroke="#808080" stroke-opacity="0.2"/>
<circle opacity="0.2" cx="121.5" cy="81.5" r="121" stroke="#808080" stroke-opacity="0.1"/>
<defs>
<clipPath id="clip0_2078_7897">
<rect width="74" height="74" fill="white" transform="translate(94 45)"/>
</clipPath>
</defs>
</svg>
