<svg width="439" height="440" viewBox="0 0 439 440" fill="none" xmlns="http://www.w3.org/2000/svg">
<path d="M304.586 76.328V75.328H303.586V76.328H304.586ZM304.586 148.257H303.586V149.257H304.586V148.257ZM317.742 148.257V149.257H318.742V148.257H317.742ZM317.742 76.328H318.742V75.328H317.742V76.328ZM302.87 177H301.87V178H302.87V177ZM319.315 177V178H320.315V177H319.315ZM319.315 160.555H320.315V159.555H319.315V160.555ZM302.87 160.555V159.555H301.87V160.555H302.87ZM303.586 76.328V148.257H305.586V76.328H303.586ZM304.586 149.257H317.742V147.257H304.586V149.257ZM318.742 148.257V76.328H316.742V148.257H318.742ZM317.742 75.328H304.586V77.328H317.742V75.328ZM302.87 178H319.315V176H302.87V178ZM320.315 177V160.555H318.315V177H320.315ZM319.315 159.555H302.87V161.555H319.315V159.555ZM301.87 160.555V177H303.87V160.555H301.87Z" fill="#FC3E24"/>
<circle cx="312.5" cy="127.5" r="312" stroke="#808080" stroke-opacity="0.1"/>
<circle cx="312.501" cy="127.5" r="194.587" stroke="#808080" stroke-opacity="0.2"/>
<circle cx="312.499" cy="127.5" r="116.913" stroke="#808080" stroke-opacity="0.4"/>
</svg>
