<svg width="335" height="344" viewBox="0 0 335 344" fill="none" xmlns="http://www.w3.org/2000/svg">
<circle cx="306.001" cy="314" r="41.9677" stroke="#808080" stroke-opacity="0.8"/>
<circle cx="305.999" cy="314" r="70.5775" stroke="#808080" stroke-opacity="0.5"/>
<circle cx="306" cy="314" r="113.939" stroke="#808080" stroke-opacity="0.2"/>
<circle cx="306" cy="314" r="172.5" stroke="#808080" stroke-opacity="0.1"/>
<path d="M292.324 305.773C292.324 305.225 292.768 304.781 293.316 304.781H318.682C319.23 304.781 319.674 305.225 319.674 305.773V322.56C319.674 323.107 319.23 323.552 318.682 323.552H293.316C292.768 323.552 292.324 323.107 292.324 322.56V305.773Z" stroke="#FC3E24"/>
<path d="M319.522 306.62L307.243 315.758C306.724 316.144 306.015 316.152 305.488 315.776L292.633 306.635C291.685 305.962 292.162 304.469 293.325 304.469H318.809C319.959 304.469 320.444 305.934 319.522 306.62Z" stroke="#FC3E24"/>
</svg>
