<svg width="1246" height="344" viewBox="0 0 1246 344" fill="none" xmlns="http://www.w3.org/2000/svg">
<circle cx="1146" cy="244" r="79.5258" stroke="#808080" stroke-opacity="0.8"/>
<circle cx="1146" cy="244" r="133.438" stroke="#808080" stroke-opacity="0.5"/>
<circle cx="1146" cy="244" r="215.149" stroke="#808080" stroke-opacity="0.2"/>
<circle cx="1146" cy="244" r="325.5" stroke="#808080" stroke-opacity="0.1"/>
<path d="M1119.5 228.329C1119.5 227.036 1120.55 225.987 1121.84 225.987H1170.16C1171.45 225.987 1172.5 227.036 1172.5 228.329V260.303C1172.5 261.597 1171.45 262.645 1170.16 262.645H1121.84C1120.55 262.645 1119.5 261.597 1119.5 260.303V228.329Z" stroke="#FC3E24"/>
<path d="M1171.76 229.941L1148.37 247.346C1147.38 248.082 1146.03 248.097 1145.03 247.382L1120.54 229.97C1118.74 228.687 1119.64 225.844 1121.86 225.844H1170.4C1172.59 225.844 1173.51 228.634 1171.76 229.941Z" stroke="#FC3E24"/>
</svg>
