<svg width="110" height="100" viewBox="0 0 110 100" fill="none" xmlns="http://www.w3.org/2000/svg">
<mask id="mask0_501_3064" style="mask-type:alpha" maskUnits="userSpaceOnUse" x="0" y="0" width="115" height="100">
<rect width="114.286" height="100" fill="#D9D9D9"/>
</mask>
<g mask="url(#mask0_501_3064)">
<path d="M106.652 89.9629C100.438 98.9523 73.8843 87.5058 47.3432 64.3965C20.802 41.2872 4.32382 15.2661 10.5381 6.27672C14.432 0.644077 26.3112 3.03481 41.1693 11.2907C50.0239 16.2107 59.9364 23.2138 69.8472 31.8431C80.25 40.9008 89.1068 50.4058 95.6573 59.1572C105.819 72.7338 110.431 84.4969 106.652 89.9629Z" stroke="#808080" stroke-linecap="round"/>
<path d="M108.559 31.0721C111.623 40.3469 92.0289 56.9489 64.7941 68.1536C37.5592 79.3583 12.9973 80.9228 9.93339 71.648C8.0136 65.8365 14.9897 57.1483 27.1673 48.7137C34.4245 43.6871 43.529 38.7505 53.6988 34.5665C64.3735 30.1749 74.6375 27.2642 83.3574 25.9066C96.8851 23.8006 106.696 25.4326 108.559 31.0721Z" stroke="#4E4E4E" stroke-linecap="round" stroke-dasharray="4 2"/>
<circle cx="57.8179" cy="50.2218" r="43.9561" fill="#282828" stroke="#808080"/>
<path d="M106.651 89.9635C100.437 98.9529 73.8836 87.5065 47.3424 64.3972C20.8013 41.2879 4.3231 15.2667 10.5374 6.27734" stroke="#808080" stroke-linecap="round"/>
<path d="M108.56 31.0716C111.624 40.3464 92.0296 56.9483 64.7947 68.153C37.5599 79.3578 12.9979 80.9223 9.93402 71.6475" stroke="#4E4E4E" stroke-linecap="round" stroke-dasharray="4 2"/>
<circle cx="18.5641" cy="31.7774" r="9.43169" fill="#282828" stroke="#FC3E24"/>
<circle cx="99.6969" cy="46.8922" r="3.75644" fill="#282828" stroke="#808080"/>
<circle cx="105.585" cy="90.4225" r="3.75644" fill="#282828" stroke="#808080"/>
</g>
</svg>
