<svg width="100" height="100" viewBox="0 0 100 100" fill="none" xmlns="http://www.w3.org/2000/svg">
<path d="M48.6234 19.1831C48.3696 19.0742 48.0757 19.1917 47.9668 19.4455L46.1931 23.5812C46.0843 23.835 46.2018 24.129 46.4556 24.2378C46.7094 24.3466 47.0033 24.2291 47.1122 23.9754L48.6888 20.2992L52.365 21.8758C52.6187 21.9846 52.9127 21.8671 53.0216 21.6133C53.1304 21.3596 53.0129 21.0656 52.7591 20.9567L48.6234 19.1831ZM49.5 43.9283C49.5 44.2044 49.7238 44.4283 50 44.4283C50.2761 44.4283 50.5 44.2044 50.5 43.9283H49.5ZM47.962 19.8282C48.9541 22.3101 49.5 25.0191 49.5 27.8569H50.5C50.5 24.8899 49.9291 22.055 48.8906 19.457L47.962 19.8282ZM49.5 27.8569V43.9283H50.5V27.8569H49.5Z" fill="white" fill-opacity="0.4"/>
<path d="M50 56.0713V72.1427C50 75.2413 50.6364 78.1911 51.7857 80.8688" stroke="white" stroke-opacity="0.4" stroke-linecap="round" stroke-linejoin="round"/>
<path d="M90.835 84.9252C90.9911 84.6974 90.9329 84.3862 90.7051 84.2301C90.4773 84.074 90.1661 84.1322 90.01 84.36L90.835 84.9252ZM53.9548 84.1511C53.6834 84.1004 53.4222 84.2793 53.3715 84.5507L52.545 88.9742C52.4943 89.2456 52.6732 89.5068 52.9446 89.5575C53.2161 89.6082 53.4773 89.4293 53.528 89.1579L54.2627 85.2259L58.1946 85.9606C58.4661 86.0113 58.7272 85.8324 58.7779 85.5609C58.8287 85.2895 58.6497 85.0283 58.3783 84.9776L53.9548 84.1511ZM90.01 84.36C86.1099 90.0525 79.5622 93.7854 72.1428 93.7854V94.7854C79.9059 94.7854 86.7564 90.8782 90.835 84.9252L90.01 84.36ZM72.1428 93.7854C64.7233 93.7854 58.1756 90.0525 54.2755 84.36L53.4505 84.9252C57.5291 90.8782 64.3796 94.7854 72.1428 94.7854V93.7854Z" fill="white" fill-opacity="0.4"/>
<path d="M75.4291 49.7366C75.1558 49.6969 74.9021 49.8862 74.8624 50.1595C74.8226 50.4328 75.0119 50.6865 75.2852 50.7262L75.4291 49.7366ZM92.0357 81.0542C92.1381 81.3107 92.429 81.4355 92.6854 81.3331L96.8645 79.6641C97.1209 79.5617 97.2458 79.2708 97.1434 79.0143C97.041 78.7579 96.7501 78.633 96.4936 78.7354L92.7789 80.219L91.2953 76.5043C91.1929 76.2478 90.902 76.123 90.6456 76.2254C90.3891 76.3278 90.2643 76.6187 90.3667 76.8752L92.0357 81.0542ZM75.2852 50.7262C85.7488 52.2478 93.7857 61.2572 93.7857 72.1427H94.7857C94.7857 60.7533 86.3771 51.3287 75.4291 49.7366L75.2852 50.7262ZM93.7857 72.1427C93.7857 75.1722 93.1636 78.0551 92.0405 80.6716L92.9595 81.066C94.135 78.3272 94.7857 75.3103 94.7857 72.1427H93.7857Z" fill="white" fill-opacity="0.4"/>
<path d="M31.0714 49.5C30.7953 49.5 30.5714 49.7239 30.5714 50C30.5714 50.2761 30.7953 50.5 31.0714 50.5V49.5ZM71.0678 50.3536C71.2631 50.1583 71.2631 49.8417 71.0678 49.6464L67.8859 46.4645C67.6906 46.2692 67.374 46.2692 67.1787 46.4645C66.9835 46.6597 66.9835 46.9763 67.1787 47.1716L70.0072 50L67.1787 52.8284C66.9835 53.0237 66.9835 53.3403 67.1787 53.5355C67.374 53.7308 67.6906 53.7308 67.8859 53.5355L71.0678 50.3536ZM31.0714 50.5H70.7143V49.5H31.0714V50.5Z" fill="white" fill-opacity="0.4"/>
<path d="M7.75221 19.8282C7.85471 19.5717 7.72992 19.2808 7.47351 19.1783C7.21709 19.0758 6.92613 19.2006 6.82364 19.457L7.75221 19.8282ZM26.7589 50.3297C26.9662 50.1472 26.9863 49.8313 26.8039 49.624L23.8305 46.2463C23.6481 46.039 23.3321 46.0189 23.1249 46.2013C22.9176 46.3838 22.8975 46.6997 23.0799 46.907L25.7229 49.9094L22.7204 52.5524C22.5132 52.7349 22.4931 53.0508 22.6755 53.2581C22.858 53.4654 23.1739 53.4855 23.3812 53.303L26.7589 50.3297ZM6.21429 27.8569C6.21429 25.0191 6.76018 22.3101 7.75221 19.8282L6.82364 19.457C5.78521 22.055 5.21429 24.8899 5.21429 27.8569H6.21429ZM26.4603 49.4554C15.1585 48.7357 6.21429 39.3406 6.21429 27.8569H5.21429C5.21429 39.8716 14.5718 49.7004 26.3968 50.4534L26.4603 49.4554Z" fill="white" fill-opacity="0.4"/>
<path d="M9.08579 15.4486C9.13651 15.72 9.39768 15.8989 9.66912 15.8482L14.0926 15.0217C14.364 14.971 14.5429 14.7098 14.4922 14.4384C14.4415 14.1669 14.1803 13.988 13.9089 14.0387L9.97694 14.7734L9.24226 10.8414C9.19154 10.57 8.93037 10.3911 8.65893 10.4418C8.38748 10.4925 8.20855 10.7537 8.25927 11.0251L9.08579 15.4486ZM45.7243 15.6393C45.8804 15.8671 46.1916 15.9253 46.4194 15.7692C46.6472 15.6131 46.7053 15.3019 46.5493 15.0741L45.7243 15.6393ZM9.98976 15.6393C13.8899 9.94683 20.4376 6.21387 27.857 6.21387V5.21387C20.0939 5.21387 13.2434 9.12114 9.16481 15.0741L9.98976 15.6393ZM27.857 6.21387C35.2765 6.21387 41.8242 9.94683 45.7243 15.6393L46.5493 15.0741C42.4707 9.12114 35.6202 5.21387 27.857 5.21387V6.21387Z" fill="#FC3E24"/>
<path d="M87.1429 72.1426C87.1429 63.8583 80.4271 57.1426 72.1429 57.1426L57.1429 57.1426L57.1429 72.1426C57.1429 80.4268 63.8586 87.1426 72.1429 87.1426C80.4271 87.1426 87.1429 80.4268 87.1429 72.1426Z" stroke="#4E4E4E" stroke-linecap="round" stroke-dasharray="4 2"/>
<path d="M16.4286 27.8573C16.4286 34.1691 21.5453 39.2859 27.8571 39.2859H39.2857V27.8573C39.2857 21.5455 34.169 16.4287 27.8571 16.4287C21.5453 16.4287 16.4286 21.5455 16.4286 27.8573Z" stroke="#FC3E24" stroke-linecap="round"/>
</svg>
