<svg width="100" height="100" viewBox="0 0 100 100" fill="none" xmlns="http://www.w3.org/2000/svg">
<path d="M52.5342 95.0145C50.9129 95.6507 49.1067 95.6507 47.465 95.0145C21.4625 84.9791 4.30538 59.982 4.26434 32.0915V11.5481C4.26434 7.66933 7.42484 4.50879 11.3037 4.50879H88.6954C92.5742 4.50879 95.7346 7.66933 95.7346 11.5481V32.0915C95.7142 59.9616 78.5367 84.9582 52.5342 94.9941V95.0145Z" stroke="white" stroke-opacity="0.4" stroke-linejoin="round"/>
<path d="M51.9995 82.2442C50.7202 82.7308 49.2953 82.7308 48.0001 82.2442C27.483 74.5707 13.9454 55.4586 13.913 34.1335V18.4262C13.913 15.4604 16.4068 13.0439 19.4673 13.0439H80.5323C83.5929 13.0439 86.087 15.4604 86.087 18.4262V34.1335C86.0705 55.4426 72.5165 74.5552 51.9995 82.2282V82.2442Z" stroke="white" stroke-linecap="round" stroke-linejoin="round" stroke-dasharray="2 4"/>
<path d="M67.8261 33.0439L48.2234 52.2715C47.9741 52.5164 47.6781 52.7106 47.3522 52.8432C47.0263 52.9757 46.6769 53.0439 46.3241 53.0439C45.9713 53.0439 45.6219 52.9757 45.296 52.8432C44.9701 52.7106 44.6741 52.5164 44.4248 52.2715L38.2609 46.2291" stroke="#FC3E24" stroke-linecap="round"/>
</svg>
