<svg width="100" height="100" viewBox="0 0 100 100" fill="none" xmlns="http://www.w3.org/2000/svg">
<path d="M8.81042 74.6338L91.6677 26.7961" stroke="#D8D8D8" stroke-opacity="0.8" stroke-linecap="round" stroke-dasharray="2 2"/>
<path d="M8.81042 26.7949L91.6677 74.6326" stroke="#D8D8D8" stroke-opacity="0.8" stroke-linecap="round" stroke-dasharray="2 2"/>
<path d="M50.2404 3.3418V99.5158" stroke="#D8D8D8" stroke-opacity="0.8" stroke-linecap="round" stroke-dasharray="2 2"/>
<rect x="39.7401" y="76.7959" width="17.1429" height="17.1429" rx="4" transform="rotate(-15 39.7401 76.7959)" fill="#1B1B1B"/>
<rect x="40.3525" y="77.1495" width="16.1429" height="16.1429" rx="3.5" transform="rotate(-15 40.3525 77.1495)" stroke="white" stroke-opacity="0.4"/>
<rect x="40.3541" y="12.8643" width="16.1429" height="16.1429" rx="3.5" transform="rotate(-15 40.3541 12.8643)" fill="url(#paint0_linear_501_3081)" stroke="#FC3E24"/>
<rect x="12.0693" y="70.8111" width="16.1429" height="16.1429" rx="3.5" transform="rotate(-60 12.0693 70.8111)" fill="url(#paint1_linear_501_3081)" stroke="#FC3E24"/>
<rect x="70.023" y="75.9297" width="16.1429" height="16.1429" rx="3.5" transform="rotate(-90 70.023 75.9297)" fill="url(#paint2_linear_501_3081)" stroke="#FC3E24"/>
<rect x="29.1555" y="45.4971" width="17.1429" height="17.1429" rx="4" transform="rotate(-165 29.1555 45.4971)" fill="#1B1B1B"/>
<rect x="28.802" y="44.8847" width="16.1429" height="16.1429" rx="3.5" transform="rotate(-165 28.802 44.8847)" stroke="white" stroke-opacity="0.4"/>
<rect x="74.9563" y="23.291" width="17.1429" height="17.1429" rx="4" transform="rotate(30 74.9563 23.291)" fill="#1B1B1B"/>
<rect x="75.1393" y="23.974" width="16.1429" height="16.1429" rx="3.5" transform="rotate(30 75.1393 23.974)" stroke="white" stroke-opacity="0.4"/>
<defs>
<linearGradient id="paint0_linear_501_3081" x1="48.2294" y1="-9.96363" x2="48.3132" y2="29.6536" gradientUnits="userSpaceOnUse">
<stop stop-color="#1B1B1B"/>
<stop offset="1" stop-color="#262626"/>
</linearGradient>
<linearGradient id="paint1_linear_501_3081" x1="19.8739" y1="48.5198" x2="19.9577" y2="88.137" gradientUnits="userSpaceOnUse">
<stop stop-color="#1B1B1B"/>
<stop offset="1" stop-color="#262626"/>
</linearGradient>
<linearGradient id="paint2_linear_501_3081" x1="78.0107" y1="53.9553" x2="78.0944" y2="93.5725" gradientUnits="userSpaceOnUse">
<stop stop-color="#1B1B1B"/>
<stop offset="1" stop-color="#262626"/>
</linearGradient>
</defs>
</svg>
