<svg width="65" height="67" viewBox="0 0 65 67" fill="none" xmlns="http://www.w3.org/2000/svg">
<g clip-path="url(#clip0_665_38893)">
<path d="M37 43.9375V11.5625" stroke="#FC3E24" stroke-linecap="round" stroke-linejoin="round"/>
<mask id="path-2-inside-1_665_38893" fill="white">
<path d="M62.4375 43.9375V60.125C62.4375 60.7383 62.1939 61.3265 61.7602 61.7602C61.3265 62.1939 60.7383 62.4375 60.125 62.4375H13.875C13.2617 62.4375 12.6735 62.1939 12.2398 61.7602C11.8061 61.3265 11.5625 60.7383 11.5625 60.125V43.9375"/>
</mask>
<path d="M61.4375 43.9375V60.125H63.4375V43.9375H61.4375ZM61.4375 60.125C61.4375 60.4731 61.2992 60.8069 61.0531 61.0531L62.4673 62.4673C63.0885 61.8461 63.4375 61.0035 63.4375 60.125H61.4375ZM61.0531 61.0531C60.8069 61.2992 60.4731 61.4375 60.125 61.4375V63.4375C61.0035 63.4375 61.8461 63.0885 62.4673 62.4673L61.0531 61.0531ZM60.125 61.4375H13.875V63.4375H60.125V61.4375ZM13.875 61.4375C13.5269 61.4375 13.1931 61.2992 12.9469 61.0531L11.5327 62.4673C12.1539 63.0885 12.9965 63.4375 13.875 63.4375V61.4375ZM12.9469 61.0531C12.7008 60.8069 12.5625 60.4731 12.5625 60.125H10.5625C10.5625 61.0035 10.9115 61.8461 11.5327 62.4673L12.9469 61.0531ZM12.5625 60.125V43.9375H10.5625V60.125H12.5625Z" fill="#808080" fill-opacity="0.4" mask="url(#path-2-inside-1_665_38893)"/>
<path d="M48.5625 32.375L37 43.9375L25.4375 32.375" stroke="#FC3E24" stroke-linecap="round" stroke-linejoin="round"/>
</g>
<defs>
<clipPath id="clip0_665_38893">
<rect width="74" height="74" fill="white"/>
</clipPath>
</defs>
</svg>
